<svg width="160" height="160" viewBox="0 0 160 160" fill="none" xmlns="http://www.w3.org/2000/svg">
<circle cx="80" cy="80" r="80" fill="#F9F6F1"/>
<path d="M150 117.07H10V117.14H150V117.07Z" fill="#EBEBEB"/>
<path d="M135.972 121.574H126.698V121.644H135.972V121.574Z" fill="#EBEBEB"/>
<path d="M102.742 122.336H100.308V122.406H102.742V122.336Z" fill="#EBEBEB"/>
<path d="M126.418 118.977H121.045V119.047H126.418V118.977Z" fill="#EBEBEB"/>
<path d="M36.782 119.449H24.6888V119.519H36.782V119.449Z" fill="#EBEBEB"/>
<path d="M41.0493 119.449H39.2769V119.519H41.0493V119.449Z" fill="#EBEBEB"/>
<path d="M73.042 120.629H46.8116V120.699H73.042V120.629Z" fill="#EBEBEB"/>
<path d="M76.3601 104.582H22.2949C21.8713 104.582 21.4654 104.413 21.1661 104.113C20.8669 103.813 20.6989 103.407 20.6989 102.984V26.9832C20.7025 26.5621 20.8722 26.1595 21.1711 25.8627C21.4699 25.566 21.8737 25.3992 22.2949 25.3984H76.3601C76.7841 25.3984 77.1907 25.5669 77.4906 25.8667C77.7904 26.1665 77.9589 26.5732 77.9589 26.9972V102.984C77.9589 103.408 77.7904 103.814 77.4906 104.114C77.1907 104.414 76.7841 104.582 76.3601 104.582ZM22.2949 25.4544C21.8899 25.4552 21.5017 25.6166 21.2156 25.9032C20.9295 26.1898 20.7689 26.5783 20.7689 26.9832V102.984C20.7689 103.389 20.9295 103.777 21.2156 104.064C21.5017 104.35 21.8899 104.512 22.2949 104.512H76.3601C76.7653 104.512 77.1537 104.35 77.4403 104.064C77.7268 103.777 77.8881 103.389 77.8889 102.984V26.9832C77.8881 26.578 77.7268 26.1896 77.4403 25.903C77.1537 25.6165 76.7653 25.4552 76.3601 25.4544H22.2949Z" fill="#EBEBEB"/>
<path d="M136.927 104.582H82.8588C82.435 104.582 82.0288 104.413 81.7291 104.113C81.4294 103.814 81.2608 103.407 81.26 102.984V26.9832C81.2644 26.5619 81.4347 26.1592 81.734 25.8626C82.0333 25.5659 82.4374 25.3992 82.8588 25.3984H136.927C137.347 25.3999 137.751 25.5671 138.049 25.8637C138.347 26.1604 138.516 26.5626 138.52 26.9832V102.984C138.52 103.407 138.352 103.813 138.054 104.112C137.755 104.412 137.35 104.581 136.927 104.582ZM82.8588 25.4544C82.4536 25.4552 82.0651 25.6165 81.7786 25.903C81.4921 26.1896 81.3307 26.578 81.33 26.9832V102.984C81.3307 103.389 81.4921 103.777 81.7786 104.064C82.0651 104.35 82.4536 104.512 82.8588 104.512H136.927C137.332 104.512 137.72 104.35 138.007 104.064C138.294 103.777 138.455 103.389 138.456 102.984V26.9832C138.455 26.578 138.294 26.1896 138.007 25.903C137.72 25.6165 137.332 25.4552 136.927 25.4544H82.8588Z" fill="#EBEBEB"/>
<path d="M135.972 41.2734H106.438V117.044H135.972V41.2734Z" fill="#EBEBEB"/>
<path d="M135.972 41.2734H130.77V117.044H135.972V41.2734Z" fill="#F5F5F5"/>
<path d="M112.964 44.4648H108.913V51.8708H112.964V44.4648Z" fill="#E6E6E6"/>
<path d="M117.996 44.4648H113.944V51.8708H117.996V44.4648Z" fill="#E6E6E6"/>
<path d="M123.028 44.4648H118.976V51.8708H123.028V44.4648Z" fill="#E6E6E6"/>
<path d="M128.059 44.4648H124.008V51.8708H128.059V44.4648Z" fill="#E6E6E6"/>
<path d="M112.964 54.0352H108.913V61.4412H112.964V54.0352Z" fill="#E6E6E6"/>
<path d="M117.996 54.0352H113.944V61.4412H117.996V54.0352Z" fill="#E6E6E6"/>
<path d="M123.028 54.0352H118.976V61.4412H123.028V54.0352Z" fill="#E6E6E6"/>
<path d="M128.059 54.0352H124.008V61.4412H128.059V54.0352Z" fill="#E6E6E6"/>
<path d="M112.964 63.6055H108.913V71.0115H112.964V63.6055Z" fill="#E6E6E6"/>
<path d="M117.996 63.6055H113.944V71.0115H117.996V63.6055Z" fill="#E6E6E6"/>
<path d="M123.028 63.6055H118.976V71.0115H123.028V63.6055Z" fill="#E6E6E6"/>
<path d="M128.059 63.6055H124.008V71.0115H128.059V63.6055Z" fill="#E6E6E6"/>
<path d="M112.964 73.1758H108.913V80.5818H112.964V73.1758Z" fill="#E6E6E6"/>
<path d="M117.996 73.1758H113.944V80.5818H117.996V73.1758Z" fill="#E6E6E6"/>
<path d="M123.028 73.1758H118.976V80.5818H123.028V73.1758Z" fill="#E6E6E6"/>
<path d="M128.059 73.1758H124.008V80.5818H128.059V73.1758Z" fill="#E6E6E6"/>
<path d="M112.964 82.7461H108.913V90.1521H112.964V82.7461Z" fill="#E6E6E6"/>
<path d="M117.996 82.7461H113.944V90.1521H117.996V82.7461Z" fill="#E6E6E6"/>
<path d="M123.028 82.7461H118.976V90.1521H123.028V82.7461Z" fill="#E6E6E6"/>
<path d="M128.059 82.7461H124.008V90.1521H128.059V82.7461Z" fill="#E6E6E6"/>
<path d="M112.964 92.3203H108.913V99.7263H112.964V92.3203Z" fill="#E6E6E6"/>
<path d="M117.996 92.3203H113.944V99.7263H117.996V92.3203Z" fill="#E6E6E6"/>
<path d="M123.028 92.3203H118.976V99.7263H123.028V92.3203Z" fill="#E6E6E6"/>
<path d="M128.059 92.3203H124.008V99.7263H128.059V92.3203Z" fill="#E6E6E6"/>
<path d="M91.1048 54.1016H44.0508V116.768H91.1048V54.1016Z" fill="#F0F0F0"/>
<path d="M82.5648 55.6719H45.0504V64.1559H82.5648V55.6719Z" fill="#E6E6E6"/>
<path d="M82.5648 65.8281H45.0504V74.3121H82.5648V65.8281Z" fill="#E6E6E6"/>
<path d="M82.5648 75.9805H45.0504V84.4645H82.5648V75.9805Z" fill="#E6E6E6"/>
<path d="M82.5648 86.1367H45.0504V94.6207H82.5648V86.1367Z" fill="#E6E6E6"/>
<path d="M82.5648 96.293H45.0504V104.777H82.5648V96.293Z" fill="#E6E6E6"/>
<path d="M82.5648 106.445H45.0504V114.929H82.5648V106.445Z" fill="#E6E6E6"/>
<path d="M91.1048 54.1016H84.4912V116.768H91.1048V54.1016Z" fill="#F5F5F5"/>
<path d="M52.4004 58.5117H48.3516V64.1565H52.4004V58.5117Z" fill="#EBEBEB"/>
<path d="M57.7848 58.5117H53.736V64.1565H57.7848V58.5117Z" fill="#EBEBEB"/>
<path d="M63.172 58.5117H59.1232V64.1565H63.172V58.5117Z" fill="#EBEBEB"/>
<path d="M68.5564 58.5117H64.5076V64.1565H68.5564V58.5117Z" fill="#EBEBEB"/>
<path d="M73.9436 58.5117H69.8948V64.1565H73.9436V58.5117Z" fill="#EBEBEB"/>
<path d="M79.3308 58.5117H75.282V64.1565H79.3308V58.5117Z" fill="#EBEBEB"/>
<path d="M52.2352 68.6484H48.1864V74.2932H52.2352V68.6484Z" fill="#EBEBEB"/>
<path d="M57.6196 68.6484H53.5708V74.2932H57.6196V68.6484Z" fill="#EBEBEB"/>
<path d="M63.0068 68.6484H58.958V74.2932H63.0068V68.6484Z" fill="#EBEBEB"/>
<path d="M68.394 68.6484H64.3452V74.2932H68.394V68.6484Z" fill="#EBEBEB"/>
<path d="M73.7784 68.6484H69.7296V74.2932H73.7784V68.6484Z" fill="#EBEBEB"/>
<path d="M79.1656 68.6484H75.1168V74.2932H79.1656V68.6484Z" fill="#EBEBEB"/>
<path d="M52.07 78.7852H48.0212V84.43H52.07V78.7852Z" fill="#EBEBEB"/>
<path d="M57.4572 78.7852H53.4084V84.43H57.4572V78.7852Z" fill="#EBEBEB"/>
<path d="M62.8416 78.7852H58.7928V84.43H62.8416V78.7852Z" fill="#EBEBEB"/>
<path d="M68.2289 78.7852H64.1801V84.43H68.2289V78.7852Z" fill="#EBEBEB"/>
<path d="M73.6159 78.7852H69.5671V84.43H73.6159V78.7852Z" fill="#EBEBEB"/>
<path d="M79.0005 78.7852H74.9517V84.43H79.0005V78.7852Z" fill="#EBEBEB"/>
<path d="M51.9048 88.918H47.856V94.5628H51.9048V88.918Z" fill="#EBEBEB"/>
<path d="M57.292 88.918H53.2432V94.5628H57.292V88.918Z" fill="#EBEBEB"/>
<path d="M62.6792 88.918H58.6304V94.5628H62.6792V88.918Z" fill="#EBEBEB"/>
<path d="M68.0636 88.918H64.0148V94.5628H68.0636V88.918Z" fill="#EBEBEB"/>
<path d="M73.4508 88.918H69.402V94.5628H73.4508V88.918Z" fill="#EBEBEB"/>
<path d="M78.8352 88.918H74.7864V94.5628H78.8352V88.918Z" fill="#EBEBEB"/>
<path d="M51.7424 99.0547H47.6936V104.699H51.7424V99.0547Z" fill="#EBEBEB"/>
<path d="M57.1268 99.0547H53.078V104.699H57.1268V99.0547Z" fill="#EBEBEB"/>
<path d="M62.514 99.0547H58.4652V104.699H62.514V99.0547Z" fill="#EBEBEB"/>
<path d="M67.9012 99.0547H63.8524V104.699H67.9012V99.0547Z" fill="#EBEBEB"/>
<path d="M73.2856 99.0547H69.2368V104.699H73.2856V99.0547Z" fill="#EBEBEB"/>
<path d="M78.6728 99.0547H74.624V104.699H78.6728V99.0547Z" fill="#EBEBEB"/>
<path d="M51.5772 109.191H47.5284V114.836H51.5772V109.191Z" fill="#EBEBEB"/>
<path d="M56.9644 109.191H52.9156V114.836H56.9644V109.191Z" fill="#EBEBEB"/>
<path d="M62.3489 109.191H58.3V114.836H62.3489V109.191Z" fill="#EBEBEB"/>
<path d="M67.7361 109.191H63.6873V114.836H67.7361V109.191Z" fill="#EBEBEB"/>
<path d="M73.1205 109.191H69.0717V114.836H73.1205V109.191Z" fill="#EBEBEB"/>
<path d="M78.5075 109.191H74.4587V114.836H78.5075V109.191Z" fill="#EBEBEB"/>
<path d="M71.7428 51.8789H24.6888V116.766H71.7428V51.8789Z" fill="#F0F0F0"/>
<path d="M63.2028 53.5078H25.6884V62.2914H63.2028V53.5078Z" fill="#E6E6E6"/>
<path d="M63.2028 64.0234H25.6884V72.807H63.2028V64.0234Z" fill="#E6E6E6"/>
<path d="M63.2028 74.5352H25.6884V83.3188H63.2028V74.5352Z" fill="#E6E6E6"/>
<path d="M63.2028 85.0508H25.6884V93.8344H63.2028V85.0508Z" fill="#E6E6E6"/>
<path d="M63.2028 95.5664H25.6884V104.35H63.2028V95.5664Z" fill="#E6E6E6"/>
<path d="M63.2028 106.082H25.6884V114.866H63.2028V106.082Z" fill="#E6E6E6"/>
<path d="M71.7427 51.8789H65.1292V116.766H71.7427V51.8789Z" fill="#F5F5F5"/>
<path d="M33.0384 56.4492H28.9896V62.2928H33.0384V56.4492Z" fill="#EBEBEB"/>
<path d="M38.4228 56.4492H34.374V62.2928H38.4228V56.4492Z" fill="#EBEBEB"/>
<path d="M43.81 56.4492H39.7612V62.2928H43.81V56.4492Z" fill="#EBEBEB"/>
<path d="M49.1944 56.4492H45.1456V62.2928H49.1944V56.4492Z" fill="#EBEBEB"/>
<path d="M54.5816 56.4492H50.5328V62.2928H54.5816V56.4492Z" fill="#EBEBEB"/>
<path d="M59.9688 56.4492H55.92V62.2928H59.9688V56.4492Z" fill="#EBEBEB"/>
<path d="M32.8733 66.9414H28.8245V72.785H32.8733V66.9414Z" fill="#EBEBEB"/>
<path d="M38.2603 66.9414H34.2115V72.785H38.2603V66.9414Z" fill="#EBEBEB"/>
<path d="M43.6447 66.9414H39.5959V72.785H43.6447V66.9414Z" fill="#EBEBEB"/>
<path d="M49.032 66.9414H44.9832V72.785H49.032V66.9414Z" fill="#EBEBEB"/>
<path d="M54.4164 66.9414H50.3676V72.785H54.4164V66.9414Z" fill="#EBEBEB"/>
<path d="M59.8036 66.9414H55.7548V72.785H59.8036V66.9414Z" fill="#EBEBEB"/>
<path d="M32.708 77.4375H28.6592V83.2811H32.708V77.4375Z" fill="#EBEBEB"/>
<path d="M38.0952 77.4375H34.0464V83.2811H38.0952V77.4375Z" fill="#EBEBEB"/>
<path d="M43.4796 77.4375H39.4308V83.2811H43.4796V77.4375Z" fill="#EBEBEB"/>
<path d="M48.8668 77.4375H44.818V83.2811H48.8668V77.4375Z" fill="#EBEBEB"/>
<path d="M54.254 77.4375H50.2052V83.2811H54.254V77.4375Z" fill="#EBEBEB"/>
<path d="M59.6384 77.4375H55.5896V83.2811H59.6384V77.4375Z" fill="#EBEBEB"/>
<path d="M32.5456 87.9336H28.4968V93.7772H32.5456V87.9336Z" fill="#EBEBEB"/>
<path d="M37.93 87.9336H33.8812V93.7772H37.93V87.9336Z" fill="#EBEBEB"/>
<path d="M43.3172 87.9336H39.2684V93.7772H43.3172V87.9336Z" fill="#EBEBEB"/>
<path d="M48.7016 87.9336H44.6528V93.7772H48.7016V87.9336Z" fill="#EBEBEB"/>
<path d="M54.0888 87.9336H50.04V93.7772H54.0888V87.9336Z" fill="#EBEBEB"/>
<path d="M59.476 87.9336H55.4272V93.7772H59.476V87.9336Z" fill="#EBEBEB"/>
<path d="M32.3803 98.4297H28.3315V104.273H32.3803V98.4297Z" fill="#EBEBEB"/>
<path d="M37.7647 98.4297H33.7159V104.273H37.7647V98.4297Z" fill="#EBEBEB"/>
<path d="M43.1519 98.4297H39.1031V104.273H43.1519V98.4297Z" fill="#EBEBEB"/>
<path d="M48.5392 98.4297H44.4904V104.273H48.5392V98.4297Z" fill="#EBEBEB"/>
<path d="M53.9236 98.4297H49.8748V104.273H53.9236V98.4297Z" fill="#EBEBEB"/>
<path d="M59.3108 98.4297H55.262V104.273H59.3108V98.4297Z" fill="#EBEBEB"/>
<path d="M32.2152 108.926H28.1664V114.769H32.2152V108.926Z" fill="#EBEBEB"/>
<path d="M37.6024 108.926H33.5536V114.769H37.6024V108.926Z" fill="#EBEBEB"/>
<path d="M42.9868 108.926H38.938V114.769H42.9868V108.926Z" fill="#EBEBEB"/>
<path d="M48.374 108.926H44.3252V114.769H48.374V108.926Z" fill="#EBEBEB"/>
<path d="M53.7612 108.926H49.7124V114.769H53.7612V108.926Z" fill="#EBEBEB"/>
<path d="M59.1456 108.926H55.0968V114.769H59.1456V108.926Z" fill="#EBEBEB"/>
<path d="M40.1615 25.4531H39.1031V33.2623H40.1615V25.4531Z" fill="#F5F5F5"/>
<path d="M66.7616 25.4531H65.7032V33.2623H66.7616V25.4531Z" fill="#F5F5F5"/>
<path d="M70.3764 31.7617H34.738V43.1101H70.3764V31.7617Z" fill="#EBEBEB"/>
<path d="M70.3736 31.7617H68.8896V43.1101H70.3736V31.7617Z" fill="#E6E6E6"/>
<path d="M80 129.718C109.983 129.718 134.289 128.299 134.289 126.548C134.289 124.798 109.983 123.379 80 123.379C50.0169 123.379 25.7108 124.798 25.7108 126.548C25.7108 128.299 50.0169 129.718 80 129.718Z" fill="#F5F5F5"/>
<path d="M32.8144 118.774C32.8144 118.774 31.2324 115.322 33.0412 111.92C34.85 108.518 35.3708 107.72 34.22 107.02C33.0692 106.32 32.54 109.741 32.54 109.741C32.54 109.741 31.5712 107.389 32.372 104.928C33.1728 102.467 33.6768 98.4572 32.582 98.026C31.4872 97.5948 32.372 103.027 31.4228 104.88C30.9385 103.58 30.626 102.221 30.4932 100.84C30.3616 98.8632 30.566 95.7076 29.7008 94.8984C28.8356 94.0892 28.284 94.6492 29.1408 99.0116C29.6505 101.619 29.9316 104.265 29.9808 106.922C29.9808 106.922 28.102 101.198 26.842 101.042C25.582 100.885 25.5848 102.722 26.6628 104.334C27.7408 105.947 29.8212 108.814 30.1628 110.304C30.1628 110.304 28.102 105.998 26.2428 107.319C24.3836 108.641 27.8556 111.239 29.4012 112.18C30.9468 113.121 32.0192 119.012 32.0192 119.012L32.8144 118.774Z" fill="#CC9B03"/>
<path opacity="0.6" d="M32.8144 118.774C32.8144 118.774 31.2324 115.322 33.0412 111.92C34.85 108.518 35.3708 107.72 34.22 107.02C33.0692 106.32 32.54 109.741 32.54 109.741C32.54 109.741 31.5712 107.389 32.372 104.928C33.1728 102.467 33.6768 98.4572 32.582 98.026C31.4872 97.5948 32.372 103.027 31.4228 104.88C30.9385 103.58 30.626 102.221 30.4932 100.84C30.3616 98.8632 30.566 95.7076 29.7008 94.8984C28.8356 94.0892 28.284 94.6492 29.1408 99.0116C29.6505 101.619 29.9316 104.265 29.9808 106.922C29.9808 106.922 28.102 101.198 26.842 101.042C25.582 100.885 25.5848 102.722 26.6628 104.334C27.7408 105.947 29.8212 108.814 30.1628 110.304C30.1628 110.304 28.102 105.998 26.2428 107.319C24.3836 108.641 27.8556 111.239 29.4012 112.18C30.9468 113.121 32.0192 119.012 32.0192 119.012L32.8144 118.774Z" fill="white"/>
<path d="M31.5599 120.188C31.5599 120.188 33.0999 116.714 31.2519 113.34C29.4039 109.966 28.8719 109.17 30.0143 108.456C31.1567 107.742 31.7279 111.153 31.7279 111.153C31.7279 111.153 32.6715 108.787 31.8399 106.337C31.0083 103.887 30.4567 99.8967 31.5599 99.4403C32.6631 98.9839 31.8399 104.438 32.8031 106.275C33.2713 104.969 33.5668 103.607 33.6823 102.224C33.7915 100.244 33.5479 97.0911 34.4019 96.2679C35.2559 95.4447 35.8187 95.9879 35.0207 100.373C34.5409 102.986 34.2908 105.637 34.2731 108.294C34.2731 108.294 36.0819 102.546 37.3531 102.358C38.6243 102.17 38.6299 104.038 37.5715 105.651C36.5131 107.264 34.4691 110.184 34.1443 111.671C34.1443 111.671 36.1519 107.334 38.0223 108.624C39.8927 109.915 36.4571 112.57 34.9227 113.533C33.3883 114.496 32.3859 120.404 32.3859 120.404L31.5599 120.188Z" fill="#CC9B03"/>
<path opacity="0.7" d="M31.5599 120.188C31.5599 120.188 33.0999 116.714 31.2519 113.34C29.4039 109.966 28.8719 109.17 30.0143 108.456C31.1567 107.742 31.7279 111.153 31.7279 111.153C31.7279 111.153 32.6715 108.787 31.8399 106.337C31.0083 103.887 30.4567 99.8967 31.5599 99.4403C32.6631 98.9839 31.8399 104.438 32.8031 106.275C33.2713 104.969 33.5668 103.607 33.6823 102.224C33.7915 100.244 33.5479 97.0911 34.4019 96.2679C35.2559 95.4447 35.8187 95.9879 35.0207 100.373C34.5409 102.986 34.2908 105.637 34.2731 108.294C34.2731 108.294 36.0819 102.546 37.3531 102.358C38.6243 102.17 38.6299 104.038 37.5715 105.651C36.5131 107.264 34.4691 110.184 34.1443 111.671C34.1443 111.671 36.1519 107.334 38.0223 108.624C39.8927 109.915 36.4571 112.57 34.9227 113.533C33.3883 114.496 32.3859 120.404 32.3859 120.404L31.5599 120.188Z" fill="white"/>
<path d="M38.6691 117.711H25.9459L26.9763 126.817H37.6415L38.6691 117.711Z" fill="#CC9B03"/>
<path d="M82.6628 77.0913H64.558V63.6289H75.9428L76.976 69.2149L82.6628 71.5221V77.0913Z" fill="#263238"/>
<path opacity="0.1" d="M82.6628 77.0913H64.558V63.6289H75.9428L76.976 69.2149L82.6628 71.5221V77.0913Z" fill="white"/>
<path opacity="0.1" d="M74.2627 77.0913H63.9979V63.6289H67.5427L68.5759 69.2149L74.2627 71.5221V77.0913Z" fill="white"/>
<path opacity="0.2" d="M75.5955 66.1978L75.2903 64.543H68.7495L69.0547 66.1978H75.5955Z" fill="black"/>
<path opacity="0.2" d="M69.192 66.9375L69.4104 68.1191H75.9512L75.7328 66.9375H69.192Z" fill="black"/>
<path opacity="0.3" d="M68.5759 69.2148H76.9759L82.6627 71.522H74.2627L68.5759 69.2148Z" fill="white"/>
<path d="M96.2093 53.5986C97.9789 54.5002 97.472 58.8402 92.9472 66.9434L89.8477 64.4234C90.5845 61.9049 91.5363 59.4543 92.6924 57.0986C94.5264 53.4418 96.2093 53.5986 96.2093 53.5986Z" fill="#CC9B03"/>
<path opacity="0.4" d="M96.2093 53.5986C97.9789 54.5002 97.472 58.8402 92.9472 66.9434L89.8477 64.4234C90.5845 61.9049 91.5363 59.4543 92.6924 57.0986C94.5264 53.4418 96.2093 53.5986 96.2093 53.5986Z" fill="white"/>
<path d="M111.408 73.1055H99.3676C98.2224 79.3635 94.6356 101.503 97.2088 121.229L101.28 120.722C101.28 120.722 100.902 94.5339 104.506 84.8543C104.92 90.0343 105.41 95.5475 105.838 98.4819C106.88 105.7 109.12 121.481 109.12 121.481H113.272C113.272 121.481 112.432 106.378 112.029 99.2799C111.609 91.5771 111.424 74.6791 111.408 73.1055Z" fill="#263238"/>
<path d="M95.3468 53.6632C96.5928 53.3832 103.164 51.9104 108.468 52.1176C108.468 52.1176 110.173 69.5924 111.772 76.696L97.9032 79.1264C97.9032 79.1264 94.7896 61.7384 95.1284 53.9264C95.1306 53.8645 95.1533 53.8052 95.1928 53.7575C95.2323 53.7099 95.2865 53.6767 95.3468 53.6632Z" fill="#CC9B03"/>
<path opacity="0.6" d="M95.3468 53.6632C96.5928 53.3832 103.164 51.9104 108.468 52.1176C108.468 52.1176 110.173 69.5924 111.772 76.696L97.9032 79.1264C97.9032 79.1264 94.7896 61.7384 95.1284 53.9264C95.1306 53.8645 95.1533 53.8052 95.1928 53.7575C95.2323 53.7099 95.2865 53.6767 95.3468 53.6632Z" fill="white"/>
<path d="M107.23 51.8828C107.23 51.8828 105.642 58.558 109.982 64.228L111.055 71.3484L112.301 77.2452L105.402 79.0652L102.929 73.5296L102.68 79.642L97.1892 80.4428L96.5928 73.4428C96.5928 73.4428 95.6436 67.9156 95.4 64.8804C95.4 64.8804 94.5768 57.8468 95.8592 53.3612L97.6652 52.972C97.6652 52.972 97.766 57.2588 100.51 60.6972C100.51 60.6972 103.114 53.8344 105.477 51.8912L107.23 51.8828Z" fill="#CC9B03"/>
<path opacity="0.2" d="M107.23 51.8828C107.23 51.8828 105.642 58.558 109.982 64.228L111.055 71.3484L112.301 77.2452L105.402 79.0652L102.929 73.5296L102.68 79.642L97.1892 80.4428L96.5928 73.4428C96.5928 73.4428 95.6436 67.9156 95.4 64.8804C95.4 64.8804 94.5768 57.8468 95.8592 53.3612L97.6652 52.972C97.6652 52.972 97.766 57.2588 100.51 60.6972C100.51 60.6972 103.114 53.8344 105.477 51.8912L107.23 51.8828Z" fill="black"/>
<path d="M90.4384 63.1197C90.4384 63.1197 89.6152 65.3737 88.9852 65.4465C88.3552 65.5193 84.2588 58.6481 84.2588 58.6481C84.2588 58.6481 83.7884 57.2845 83.0128 56.9149C82.2372 56.5453 79.9328 55.2349 79.3392 55.5317C78.7456 55.8285 79.0592 58.0965 79.0592 58.6117C79.0592 59.0653 81.0192 59.7317 81.6072 59.8437C81.9878 59.9222 82.3832 59.8872 82.744 59.7429C82.744 59.7429 86.0284 67.8293 88.1592 69.2461C90.29 70.6629 93.4988 65.8441 93.4988 65.8441L90.4384 63.1197Z" fill="#EBB376"/>
<path d="M89.3156 64.2684L89.898 63.8008L93.44 66.7968L92.8716 67.8132L89.3156 64.2684Z" fill="#CC9B03"/>
<path opacity="0.3" d="M89.3156 64.2684L89.898 63.8008L93.44 66.7968L92.8716 67.8132L89.3156 64.2684Z" fill="white"/>
<path d="M100.838 124.663L98.4969 124.91L98.0573 119.859L100.398 119.609L100.838 124.663Z" fill="#EBB376"/>
<path d="M112.53 124.493H110.26L110.072 119.234H112.343L112.53 124.493Z" fill="#EBB376"/>
<path d="M109.943 124.238H112.701C112.747 124.239 112.791 124.255 112.826 124.283C112.862 124.311 112.887 124.351 112.897 124.395L113.342 126.417C113.352 126.46 113.353 126.504 113.345 126.548C113.337 126.591 113.321 126.632 113.297 126.669C113.273 126.706 113.242 126.738 113.205 126.763C113.169 126.788 113.128 126.805 113.085 126.814C113.061 126.817 113.036 126.817 113.012 126.814C112.119 126.8 111.469 126.747 110.349 126.747C109.658 126.747 107.577 126.817 106.622 126.817C105.668 126.817 105.547 125.876 105.936 125.789C107.686 125.409 109.002 124.879 109.562 124.389C109.666 124.293 109.802 124.239 109.943 124.238Z" fill="#263238"/>
<path d="M109.193 124.632C109.039 124.644 108.886 124.602 108.759 124.515C108.718 124.482 108.686 124.438 108.666 124.389C108.646 124.341 108.638 124.287 108.644 124.235C108.644 124.204 108.652 124.173 108.669 124.147C108.685 124.121 108.708 124.1 108.736 124.086C108.988 123.955 109.722 124.406 109.803 124.459C109.812 124.463 109.82 124.471 109.824 124.48C109.829 124.489 109.83 124.499 109.828 124.509C109.827 124.52 109.822 124.53 109.816 124.539C109.809 124.547 109.799 124.553 109.789 124.557C109.593 124.602 109.394 124.627 109.193 124.632ZM108.857 124.159C108.832 124.159 108.808 124.165 108.787 124.176C108.773 124.176 108.753 124.196 108.75 124.238C108.746 124.273 108.751 124.309 108.764 124.343C108.776 124.377 108.797 124.407 108.823 124.431C109.078 124.548 109.367 124.563 109.632 124.473C109.396 124.321 109.133 124.214 108.857 124.159Z" fill="#CC9B03"/>
<path d="M109.775 124.55H109.747C109.515 124.421 109.061 123.922 109.106 123.682C109.114 123.642 109.136 123.606 109.168 123.581C109.199 123.555 109.239 123.541 109.28 123.542C109.32 123.536 109.362 123.539 109.401 123.551C109.441 123.563 109.478 123.582 109.509 123.609C109.772 123.824 109.826 124.477 109.828 124.508C109.829 124.517 109.827 124.527 109.822 124.536C109.818 124.545 109.811 124.552 109.803 124.558C109.793 124.558 109.783 124.555 109.775 124.55ZM109.319 123.628H109.291C109.224 123.628 109.218 123.668 109.212 123.682C109.184 123.83 109.473 124.208 109.708 124.384C109.688 124.125 109.591 123.877 109.428 123.673C109.397 123.647 109.359 123.631 109.319 123.628Z" fill="#CC9B03"/>
<path d="M98.2476 124.156H101C101.045 124.158 101.088 124.174 101.123 124.202C101.158 124.23 101.183 124.269 101.193 124.313L101.641 126.335C101.66 126.422 101.643 126.512 101.594 126.587C101.546 126.661 101.47 126.713 101.384 126.732H101.311C100.418 126.715 99.768 126.662 98.648 126.662C97.9564 126.662 95.8732 126.735 94.9212 126.735C93.9692 126.735 93.8432 125.791 94.2352 125.705C95.9852 125.324 97.3012 124.795 97.8612 124.305C97.9663 124.208 98.1046 124.155 98.2476 124.156Z" fill="#263238"/>
<path d="M97.4973 124.559C97.3429 124.571 97.1891 124.531 97.0605 124.445C97.0209 124.41 96.9901 124.367 96.9707 124.318C96.9512 124.269 96.9436 124.217 96.9485 124.165C96.9478 124.134 96.9561 124.103 96.9725 124.077C96.989 124.05 97.0127 124.029 97.0409 124.016C97.2929 123.885 98.0265 124.335 98.1077 124.389C98.1164 124.393 98.1235 124.401 98.128 124.41C98.1324 124.419 98.1342 124.429 98.1329 124.439C98.1315 124.45 98.1268 124.461 98.1193 124.469C98.1118 124.478 98.1019 124.484 98.0909 124.487C97.8964 124.533 97.6972 124.558 97.4973 124.559ZM97.1585 124.089C97.1351 124.086 97.1116 124.091 97.0913 124.103C97.0745 124.103 97.0577 124.123 97.0549 124.167C97.0513 124.203 97.056 124.239 97.0686 124.272C97.0813 124.306 97.1015 124.336 97.1277 124.361C97.3831 124.474 97.6717 124.488 97.9369 124.4C97.6993 124.248 97.4352 124.143 97.1585 124.089Z" fill="#CC9B03"/>
<path d="M98.0769 124.476H98.0517C97.8165 124.35 97.3657 123.848 97.4105 123.608C97.4188 123.568 97.4407 123.532 97.4723 123.507C97.504 123.481 97.5434 123.467 97.5841 123.468C97.6247 123.462 97.666 123.465 97.7052 123.477C97.7444 123.489 97.7805 123.51 97.8109 123.538C98.0741 123.75 98.1301 124.403 98.1329 124.434C98.1328 124.443 98.1304 124.453 98.1261 124.462C98.1217 124.47 98.1154 124.478 98.1077 124.484C98.0968 124.484 98.0861 124.481 98.0769 124.476ZM97.6205 123.554H97.5953C97.5253 123.554 97.5197 123.594 97.5169 123.608C97.4889 123.756 97.7773 124.134 98.0125 124.31C97.9929 124.05 97.8953 123.803 97.7325 123.599C97.7008 123.573 97.6616 123.557 97.6205 123.554Z" fill="#CC9B03"/>
<path opacity="0.2" d="M100.398 119.609L98.0573 119.859L98.2841 122.465L100.628 122.216L100.398 119.609Z" fill="black"/>
<path opacity="0.2" d="M112.343 119.238H110.072L110.17 121.949H112.444L112.343 119.238Z" fill="black"/>
<path d="M96.7328 122.178L101.781 121.427L101.627 120.027L96.3744 120.719L96.7328 122.178Z" fill="#CC9B03"/>
<path opacity="0.6" d="M96.7328 122.178L101.781 121.427L101.627 120.027L96.3744 120.719L96.7328 122.178Z" fill="white"/>
<path d="M108.627 121.513H113.524V120.048L108.442 119.953L108.627 121.513Z" fill="#CC9B03"/>
<path opacity="0.6" d="M108.627 121.513H113.524V120.048L108.442 119.953L108.627 121.513Z" fill="white"/>
<path opacity="0.2" d="M104.5 84.8537C103.907 86.5547 103.457 88.3024 103.156 90.0785C102.817 85.4669 104.167 80.5781 104.167 80.5781L104.5 84.8537Z" fill="black"/>
<path d="M104.044 52.2605C103.17 53.4701 100.44 53.6605 100.44 53.6605C100.44 53.6605 98.69 53.5569 98.928 52.9661C99.8688 52.5993 100.244 52.0449 100.328 51.4205C100.359 51.0371 100.312 50.6515 100.191 50.2865C100.132 50.081 100.061 49.879 99.978 49.6817L102.742 46.5625C102.641 48.2649 102.739 51.3225 104.044 52.2605Z" fill="#EBB376"/>
<path opacity="0.2" d="M102.299 48.2734C102.579 50.267 101.084 51.1518 100.317 51.429C100.347 51.0457 100.301 50.6601 100.18 50.295L102.299 48.2734Z" fill="black"/>
<path d="M96.7496 41.9507C96.7496 41.9507 96.0664 45.0307 97.6428 46.3551C99.2192 47.6795 99.6028 41.8555 99.6028 41.8555L96.7496 41.9507Z" fill="#263238"/>
<path d="M102.285 49.1577C101.903 49.6484 101.37 50.0001 100.769 50.1589C100.168 50.3177 99.5307 50.2749 98.956 50.0369C98.2083 49.7429 97.6006 49.1753 97.2564 48.4493C97.2058 48.3487 97.1619 48.2449 97.1248 48.1385C96.4388 46.1785 96.4052 42.8185 98.5052 41.6985C98.9681 41.4499 99.487 41.3239 100.012 41.3324C100.538 41.341 101.052 41.4838 101.507 41.7473C101.962 42.0108 102.341 42.3863 102.61 42.8379C102.878 43.2896 103.027 43.8025 103.041 44.3277C103.139 46.5817 103.302 47.9005 102.285 49.1577Z" fill="#EBB376"/>
<path d="M99.7092 45.3087C99.74 45.4879 99.6476 45.6475 99.5272 45.6615C99.4068 45.6755 99.2976 45.5327 99.278 45.3507C99.2584 45.1687 99.3424 45.0119 99.46 45.0007C99.5776 44.9895 99.6896 45.1239 99.7092 45.3087Z" fill="#263238"/>
<path d="M97.64 45.5195C97.6708 45.6987 97.5756 45.8583 97.4552 45.8723C97.3348 45.8863 97.2256 45.7435 97.206 45.5643C97.1864 45.3851 97.2704 45.2227 97.388 45.2115C97.5056 45.2003 97.64 45.3487 97.64 45.5195Z" fill="#263238"/>
<path d="M98.3148 45.543C98.1531 46.1222 97.9139 46.677 97.6036 47.1922C97.7377 47.2687 97.8869 47.3148 98.0408 47.3274C98.1946 47.34 98.3493 47.3187 98.494 47.265L98.3148 45.543Z" fill="#D58745"/>
<path d="M100.28 44.5803C100.261 44.5845 100.241 44.5839 100.222 44.5786C100.203 44.5732 100.185 44.5632 100.171 44.5495C100.081 44.4499 99.9695 44.3728 99.8446 44.3241C99.7196 44.2755 99.5851 44.2568 99.4516 44.2695C99.4255 44.2699 99.4001 44.261 99.38 44.2444C99.3599 44.2277 99.3464 44.2044 99.342 44.1787C99.3376 44.153 99.3426 44.1265 99.356 44.1041C99.3694 44.0818 99.3904 44.0649 99.4152 44.0567C99.5844 44.0389 99.7555 44.0615 99.9142 44.1229C100.073 44.1842 100.215 44.2825 100.328 44.4095C100.338 44.4194 100.346 44.4312 100.351 44.4441C100.357 44.4571 100.36 44.471 100.36 44.4851C100.36 44.4991 100.357 44.5131 100.351 44.526C100.346 44.539 100.338 44.5508 100.328 44.5607C100.313 44.57 100.297 44.5767 100.28 44.5803Z" fill="#263238"/>
<path d="M96.6936 44.8999C96.6727 44.9067 96.6501 44.9067 96.6292 44.8999C96.6159 44.8952 96.6037 44.8879 96.5932 44.8785C96.5828 44.869 96.5743 44.8575 96.5683 44.8448C96.5623 44.832 96.5589 44.8182 96.5583 44.8041C96.5577 44.79 96.5599 44.7759 96.5648 44.7627C96.6199 44.6012 96.713 44.4554 96.8363 44.3375C96.9596 44.2195 97.1095 44.133 97.2732 44.0851C97.2868 44.0818 97.301 44.0811 97.3148 44.0833C97.3286 44.0854 97.3419 44.0903 97.3539 44.0975C97.3659 44.1048 97.3763 44.1144 97.3845 44.1257C97.3928 44.137 97.3987 44.1499 97.402 44.1635C97.4079 44.1913 97.4027 44.2203 97.3876 44.2444C97.3724 44.2684 97.3485 44.2856 97.3208 44.2923C97.1895 44.3341 97.0702 44.4068 96.9727 44.5042C96.8753 44.6016 96.8026 44.721 96.7608 44.8523C96.7449 44.8757 96.721 44.8926 96.6936 44.8999Z" fill="#263238"/>
<path d="M101.115 41.7148L101.048 42.7116C101.219 42.7828 101.358 42.916 101.435 43.0846C101.513 43.2532 101.525 43.4449 101.468 43.6216C101.188 44.4616 101.748 45.7356 102.403 46.2172C102.403 46.2172 102.403 45.8532 102.711 45.9372C103.019 46.0212 103.038 47.8972 102.492 48.8184C102.492 48.8184 103.346 47.9588 103.747 45.9596C104.119 44.1116 104.094 42.5996 103.68 41.9024L101.115 41.7148Z" fill="#263238"/>
<path d="M104.206 46.0695C104.108 46.3339 103.959 46.5762 103.766 46.7824C103.574 46.9886 103.343 47.1546 103.086 47.2707C102.403 47.5815 101.946 46.9907 102.042 46.2907C102.128 45.6663 102.585 44.7311 103.318 44.7227C104.052 44.7143 104.438 45.4143 104.206 46.0695Z" fill="#EBB376"/>
<path d="M101.048 42.7112C100.279 42.6512 99.5053 42.727 98.7628 42.9352C98.1188 43.142 97.4307 43.1701 96.772 43.0164C96.772 43.0164 95.7752 41.0004 97.094 39.7796C98.4128 38.5588 100.619 39.0348 101.333 39.4492C102.047 39.8636 100.597 39.7936 100.597 39.7936C100.597 39.7936 102.932 40.2276 103.943 41.1152C104.954 42.0028 104.71 43.4644 104.503 43.7108C104.296 43.9572 104.111 43.414 104.111 43.414C103.678 43.6322 103.194 43.729 102.711 43.694C101.84 43.6828 102.204 42.9128 101.048 42.7112Z" fill="#263238"/>
<path d="M98.6284 47.9957C98.7819 48.2439 98.9166 48.5031 99.0316 48.7713C99.0818 48.7612 99.1314 48.7481 99.18 48.7321C99.8576 48.5585 100.112 48.2533 100.191 47.9677C100.224 47.8278 100.224 47.682 100.191 47.5421C100.175 47.462 100.148 47.3847 100.11 47.3125C99.7401 47.6054 99.3125 47.8163 98.8552 47.9313L98.6284 47.9957Z" fill="#263238"/>
<path d="M98.858 47.9313L98.984 48.1581C99.6196 47.9901 100.045 47.7857 100.194 47.5421C100.178 47.462 100.151 47.3847 100.112 47.3125C99.7429 47.6054 99.3153 47.8163 98.858 47.9313Z" fill="white"/>
<path d="M99.1801 48.7331C99.8577 48.5595 100.112 48.2544 100.191 47.9688C99.9351 48.0402 99.6943 48.1568 99.4797 48.3131C99.3382 48.4183 99.2334 48.5652 99.1801 48.7331Z" fill="#DE5753"/>
<path d="M103.349 51.375C102.653 52.2667 101.766 52.9918 100.754 53.4974C100.43 53.075 100.211 52.5817 100.115 52.0582C99.5694 52.3172 99.0669 52.6591 98.6256 53.0718C98.6948 53.7266 98.9215 54.3549 99.2864 54.903L100.706 53.8866L102.428 55.1438C102.428 55.1438 104.69 53.6822 105.197 52.1814L103.349 51.375Z" fill="#CC9B03"/>
<path opacity="0.4" d="M103.349 51.375C102.653 52.2667 101.766 52.9918 100.754 53.4974C100.43 53.075 100.211 52.5817 100.115 52.0582C99.5694 52.3172 99.0669 52.6591 98.6256 53.0718C98.6948 53.7266 98.9215 54.3549 99.2864 54.903L100.706 53.8866L102.428 55.1438C102.428 55.1438 104.69 53.6822 105.197 52.1814L103.349 51.375Z" fill="white"/>
<path d="M85.4768 62.7587C83.5672 62.6187 83.8164 64.1979 84.158 65.3291L85.642 68.6891L88.6604 68.5799C88.6604 68.5799 87.3864 62.8959 85.4768 62.7587ZM85.3396 66.6955C84.8972 65.9675 83.6204 63.6995 84.9784 63.3103C86.3364 62.9211 87.9408 65.9423 87.5544 67.1043C87.168 68.2663 86.216 68.1375 85.3396 66.6955Z" fill="#CC9B03"/>
<path opacity="0.5" d="M85.4768 62.7587C83.5672 62.6187 83.8164 64.1979 84.158 65.3291L85.642 68.6891L88.6604 68.5799C88.6604 68.5799 87.3864 62.8959 85.4768 62.7587ZM85.3396 66.6955C84.8972 65.9675 83.6204 63.6995 84.9784 63.3103C86.3364 62.9211 87.9408 65.9423 87.5544 67.1043C87.168 68.2663 86.216 68.1375 85.3396 66.6955Z" fill="white"/>
<path d="M84.9224 68.4899L85.8632 65.0039L90.4328 66.1603L89.2652 71.9227L84.9224 68.4899Z" fill="#CC9B03"/>
<path d="M90.0185 71.2588L88.9097 64.284L91.6789 63.0352L93.8601 64.284L94.0897 71.592L90.0185 71.2588Z" fill="#CC9B03"/>
<path opacity="0.2" d="M90.0185 71.2588L88.9097 64.284L91.6789 63.0352L93.8601 64.284L94.0897 71.592L90.0185 71.2588Z" fill="black"/>
<path d="M92.012 69.1824C92.012 69.1824 93.5352 59.6624 94.644 59.3516C95.7528 59.0408 96.7748 60.5164 96.7748 60.5164C96.7748 60.5164 95.8312 66.7184 95.1396 68.9164C94.448 71.1144 92.012 69.1824 92.012 69.1824Z" fill="#CC9B03"/>
<path opacity="0.8" d="M92.012 69.1824C92.012 69.1824 93.5352 59.6624 94.644 59.3516C95.7528 59.0408 96.7748 60.5164 96.7748 60.5164C96.7748 60.5164 95.8312 66.7184 95.1396 68.9164C94.448 71.1144 92.012 69.1824 92.012 69.1824Z" fill="white"/>
<path d="M95.7501 69.509C95.7501 68.109 97.5981 64.189 95.2993 63.8026C93.0005 63.4162 91.1721 67.5882 88.5793 67.5798C85.9865 67.5714 84.1497 65.3398 84.1497 65.3398L84.5473 66.1658C84.5473 66.1658 79.5493 75.9462 81.9321 76.9178C84.1497 77.8194 96.5957 76.9178 96.5957 76.9178C98.4157 75.669 95.7501 70.9118 95.7501 69.509ZM95.4701 68.0614C95.1901 68.1314 93.8657 66.6978 93.8657 66.6978C93.7537 64.0994 95.1677 63.923 95.8593 64.6706C96.5509 65.4182 95.7501 67.9942 95.4729 68.0614H95.4701Z" fill="#CC9B03"/>
<path opacity="0.7" d="M95.7501 69.509C95.7501 68.109 97.5981 64.189 95.2993 63.8026C93.0005 63.4162 91.1721 67.5882 88.5793 67.5798C85.9865 67.5714 84.1497 65.3398 84.1497 65.3398L84.5473 66.1658C84.5473 66.1658 79.5493 75.9462 81.9321 76.9178C84.1497 77.8194 96.5957 76.9178 96.5957 76.9178C98.4157 75.669 95.7501 70.9118 95.7501 69.509ZM95.4701 68.0614C95.1901 68.1314 93.8657 66.6978 93.8657 66.6978C93.7537 64.0994 95.1677 63.923 95.8593 64.6706C96.5509 65.4182 95.7501 67.9942 95.4729 68.0614H95.4701Z" fill="white"/>
<path opacity="0.6" d="M105.327 61.2025L102.521 61.5039L102.727 63.4249L105.533 63.1235L105.327 61.2025Z" fill="white"/>
<path d="M103.436 60.461L103.716 61.3878C103.733 61.4462 103.771 61.4963 103.823 61.5283C103.874 61.5604 103.936 61.5722 103.996 61.5614C104.049 61.553 104.098 61.5278 104.136 61.4895C104.174 61.4513 104.198 61.4019 104.206 61.3486L104.354 60.2734L103.436 60.461Z" fill="#CC9B03"/>
<path opacity="0.4" d="M103.436 60.461L103.716 61.3878C103.733 61.4462 103.771 61.4963 103.823 61.5283C103.874 61.5604 103.936 61.5722 103.996 61.5614C104.049 61.553 104.098 61.5278 104.136 61.4895C104.174 61.4513 104.198 61.4019 104.206 61.3486L104.354 60.2734L103.436 60.461Z" fill="black"/>
<path d="M105.5 63.1055C105.5 63.1055 104.458 66.2331 104.01 66.9135C103.562 67.5939 92.012 70.5815 92.012 70.5815C92.012 70.5815 91.0432 70.0887 90.4328 70.1419C89.8224 70.1951 87.4424 70.7495 87.3864 71.1919C87.3304 71.6343 88.6072 73.6279 88.9096 73.7931C89.212 73.9583 92.2696 73.4991 92.5944 72.7039C92.5944 72.7039 104.391 70.5871 105.5 70.1419C106.608 69.6967 108.986 64.4355 108.986 64.4355L105.5 63.1055Z" fill="#EBB376"/>
<path d="M108.468 52.1152C110.254 52.2356 111.814 56.0828 111.508 59.1852C111.203 62.2876 108.35 67.5852 108.35 67.5852L104.363 65.6252C104.363 65.6252 105.36 62.0776 106.496 58.7176C107.633 55.3576 107.118 52.0228 108.468 52.1152Z" fill="#CC9B03"/>
<path opacity="0.4" d="M108.468 52.1152C110.254 52.2356 111.814 56.0828 111.508 59.1852C111.203 62.2876 108.35 67.5852 108.35 67.5852L104.363 65.6252C104.363 65.6252 105.36 62.0776 106.496 58.7176C107.633 55.3576 107.118 52.0228 108.468 52.1152Z" fill="white"/>
<path d="M103.887 65.9749L104.329 65.3281L108.986 66.9017L108.745 68.0581L103.887 65.9749Z" fill="#CC9B03"/>
<path opacity="0.3" d="M103.887 65.9749L104.329 65.3281L108.986 66.9017L108.745 68.0581L103.887 65.9749Z" fill="white"/>
<path d="M67.12 72.1797H75.3128C75.4457 72.1797 75.5732 72.2325 75.6672 72.3265C75.7612 72.4205 75.814 72.548 75.814 72.6809V77.2897H66.6188V72.6781C66.6195 72.5456 66.6726 72.4189 66.7666 72.3255C66.8605 72.2321 66.9875 72.1797 67.12 72.1797Z" fill="#CC9B03"/>
<path opacity="0.3" d="M75.8 72.6781V77.2869H66.6188V72.6781C66.6188 72.5459 66.6713 72.4191 66.7648 72.3257C66.8582 72.2322 66.985 72.1797 67.1172 72.1797H75.3128C75.443 72.1826 75.5669 72.2364 75.658 72.3296C75.749 72.4227 75.8 72.5478 75.8 72.6781Z" fill="white"/>
<path opacity="0.4" d="M73.56 72.6781V77.2869H66.6188V72.6781C66.6188 72.5459 66.6713 72.4191 66.7648 72.3257C66.8582 72.2322 66.985 72.1797 67.1172 72.1797H73.0728C73.203 72.1826 73.3269 72.2364 73.418 72.3296C73.509 72.4227 73.56 72.5478 73.56 72.6781Z" fill="white"/>
<path d="M124.878 78.6562H60.7808V126.813H124.878V78.6562Z" fill="#CC9B03"/>
<path opacity="0.3" d="M124.878 78.6562H60.7808V126.813H124.878V78.6562Z" fill="white"/>
<path opacity="0.4" d="M108.246 78.6562H60.7808V126.813H108.246V78.6562Z" fill="white"/>
<path d="M125.368 76.8867H60.5428C60.3015 76.8867 60.106 77.0823 60.106 77.3235V79.2359C60.106 79.4772 60.3015 79.6727 60.5428 79.6727H125.368C125.61 79.6727 125.805 79.4772 125.805 79.2359V77.3235C125.805 77.0823 125.61 76.8867 125.368 76.8867Z" fill="#CC9B03"/>
<path opacity="0.2" d="M108.568 76.8867H60.5428C60.3015 76.8867 60.106 77.0823 60.106 77.3235V79.2359C60.106 79.4772 60.3015 79.6727 60.5428 79.6727H108.568C108.81 79.6727 109.005 79.4772 109.005 79.2359V77.3235C109.005 77.0823 108.81 76.8867 108.568 76.8867Z" fill="white"/>
<path d="M133.992 119.874C134.05 119.753 134.078 119.62 134.073 119.486C134.069 119.352 134.032 119.221 133.967 119.104C133.901 118.986 133.808 118.887 133.697 118.813C133.585 118.739 133.457 118.693 133.323 118.679C133.442 118.334 133.452 117.961 133.351 117.611C133.251 117.26 133.046 116.949 132.763 116.719C132.696 116.656 132.611 116.618 132.52 116.609C132.421 116.62 132.329 116.66 132.254 116.724L130.694 117.844C130.568 117.92 130.461 118.024 130.383 118.149C130.064 118.768 131.223 119.549 130.742 120.07C130.607 120.216 130.389 120.247 130.218 120.35C129.846 120.583 129.801 121.092 129.63 121.495C129.459 121.899 128.852 122.209 128.622 121.837C128.793 121.451 128.275 121.12 127.858 121.07C127.44 121.019 127.001 120.997 126.768 120.605C126.172 121.123 124.842 119.675 124.873 119.09C124.383 119.127 124.05 119.586 123.943 120.042C123.875 120.524 123.858 121.012 123.893 121.498C123.879 122.447 123.574 123.374 123.59 124.321C123.59 125.057 123.887 125.875 124.562 126.171C124.896 126.291 125.252 126.339 125.606 126.311L133.287 126.264C133.471 126.276 133.656 126.245 133.827 126.174C134.174 125.992 134.247 125.536 134.281 125.147L134.692 120.143L133.992 119.874Z" fill="#CC9B03"/>
<path opacity="0.3" d="M133.992 119.874C134.05 119.753 134.078 119.62 134.073 119.486C134.069 119.352 134.032 119.221 133.967 119.104C133.901 118.986 133.808 118.887 133.697 118.813C133.585 118.739 133.457 118.693 133.323 118.679C133.442 118.334 133.452 117.961 133.351 117.611C133.251 117.26 133.046 116.949 132.763 116.719C132.696 116.656 132.611 116.618 132.52 116.609C132.421 116.62 132.329 116.66 132.254 116.724L130.694 117.844C130.568 117.92 130.461 118.024 130.383 118.149C130.064 118.768 131.223 119.549 130.742 120.07C130.607 120.216 130.389 120.247 130.218 120.35C129.846 120.583 129.801 121.092 129.63 121.495C129.459 121.899 128.852 122.209 128.622 121.837C128.793 121.451 128.275 121.12 127.858 121.07C127.44 121.019 127.001 120.997 126.768 120.605C126.172 121.123 124.842 119.675 124.873 119.09C124.383 119.127 124.05 119.586 123.943 120.042C123.875 120.524 123.858 121.012 123.893 121.498C123.879 122.447 123.574 123.374 123.59 124.321C123.59 125.057 123.887 125.875 124.562 126.171C124.896 126.291 125.252 126.339 125.606 126.311L133.287 126.264C133.471 126.276 133.656 126.245 133.827 126.174C134.174 125.992 134.247 125.536 134.281 125.147L134.692 120.143L133.992 119.874Z" fill="white"/>
<path d="M134.44 111.758H122.524L122.622 112.962L122.692 113.821L122.874 116.061L122.977 117.347L123.114 119.057L123.173 119.791L123.193 120.009L123.263 120.872L123.358 122.053L123.417 122.787L123.478 123.532L123.548 124.394L123.602 125.047L123.66 125.78L123.686 126.099H134.622L134.648 125.78L134.706 125.049L134.76 124.391L134.83 123.529L134.891 122.787L134.95 122.053L135.045 120.869L135.115 120.009L135.132 119.791L135.191 119.057L135.331 117.347L135.434 116.064L135.614 113.824L135.684 112.965L135.782 111.761L134.44 111.758ZM135.157 112.547L134.928 112.318H135.177L135.157 112.547ZM135.098 113.278L135.076 113.558L134.009 114.625L132.786 113.401L133.88 112.307H134.138L135.098 113.278ZM134.79 117.092L134.009 117.873L132.786 116.649L134.009 115.429L134.849 116.269L134.79 117.092ZM123.45 116.274L124.29 115.434L125.514 116.655L124.29 117.879L123.512 117.097L123.45 116.274ZM133.614 115.031L132.391 116.255L131.167 115.031L132.391 113.807L133.614 115.031ZM131.691 112.318H133.091L132.391 113.018L131.691 112.318ZM131.993 116.649L130.772 117.873L129.56 116.649L130.784 115.429L131.993 116.649ZM127.93 118.268L129.154 117.047L130.375 118.268L129.154 119.48L127.93 118.268ZM128.756 119.886L127.533 121.11L126.312 119.889L127.536 118.665L128.756 119.886ZM130.772 118.665L131.993 119.889L130.772 121.11L129.56 119.886L130.772 118.665ZM129.154 116.255L127.93 115.031L129.154 113.807L130.375 115.031L129.154 116.255ZM128.756 116.649L127.536 117.873L126.312 116.649L127.536 115.429L128.756 116.649ZM125.92 116.255L124.699 115.031L125.92 113.807L127.144 115.031L125.92 116.255ZM125.92 117.047L127.144 118.268L125.92 119.48L124.699 118.257L125.92 117.047ZM127.144 121.507L125.92 122.728L124.699 121.507L125.92 120.284L127.144 121.507ZM127.538 121.902L128.762 123.126L127.541 124.349L126.312 123.12L127.538 121.902ZM127.936 121.507L129.16 120.284L130.38 121.507L129.16 122.728L127.936 121.507ZM130.778 121.902L131.999 123.126L130.778 124.349L129.56 123.12L130.778 121.902ZM132.396 123.521L133.62 124.744L132.828 125.537H131.965L131.173 124.744L132.396 123.521ZM131.173 121.507L132.396 120.284L133.62 121.507L132.396 122.728L131.173 121.507ZM131.173 118.268L132.396 117.047L133.62 118.268L132.391 119.48L131.173 118.268ZM131.999 113.413L130.778 114.636L129.56 113.413L130.655 112.318H130.912L131.999 113.413ZM129.16 113.018L128.46 112.318H129.86L129.16 113.018ZM128.762 113.413L127.541 114.636L126.318 113.413L127.412 112.318H127.67L128.762 113.413ZM126.62 112.318L125.92 113.018L125.223 112.318H126.62ZM124.43 112.318L125.525 113.413L124.302 114.636L123.238 113.569L123.215 113.289L124.173 112.329L124.43 112.318ZM123.383 112.318L123.156 112.545L123.137 112.318H123.383ZM123.308 114.432L123.907 115.031L123.4 115.541L123.308 114.432ZM123.641 118.534L123.593 117.954L123.907 118.268L123.627 118.534H123.641ZM123.7 119.27L124.302 118.665L125.525 119.889L124.302 121.11L123.809 120.617L123.7 119.27ZM123.882 121.533V121.479L123.91 121.507L123.884 121.533H123.882ZM124.094 124.139L123.94 122.263L124.302 121.902L125.525 123.126L124.302 124.347L124.094 124.139ZM124.206 125.539L124.184 125.259L124.302 125.142L124.699 125.539H124.206ZM124.699 124.747L125.92 123.523L127.144 124.747L126.351 125.539H125.489L124.699 124.747ZM127.144 125.539L127.541 125.142L127.939 125.539H127.144ZM128.728 125.539L127.936 124.747L129.16 123.523L130.38 124.747L129.591 125.539H128.728ZM130.38 125.539L130.778 125.142L131.176 125.539H130.38ZM134.11 125.539H133.617L134.015 125.142L134.132 125.259L134.11 125.539ZM134.225 124.139L134.015 124.347L132.786 123.12L134.009 121.897L134.37 122.258L134.225 124.139ZM134.44 121.477V121.533L134.415 121.507L134.446 121.477H134.44ZM134.51 120.617L134.015 121.11L132.791 119.889L134.015 118.665L134.62 119.27L134.51 120.617ZM134.678 118.537L134.398 118.257L134.715 117.943L134.678 118.537ZM135.006 114.44L134.916 115.56L134.404 115.048L135.006 114.446V114.44Z" fill="#CC9B03"/>
<g opacity="0.6">
<path d="M134.44 111.758H122.524L122.622 112.962L122.692 113.821L122.874 116.061L122.977 117.347L123.114 119.057L123.173 119.791L123.193 120.009L123.263 120.872L123.358 122.053L123.417 122.787L123.478 123.532L123.548 124.394L123.602 125.047L123.66 125.78L123.686 126.099H134.622L134.648 125.78L134.706 125.049L134.76 124.391L134.83 123.529L134.891 122.787L134.95 122.053L135.045 120.869L135.115 120.009L135.132 119.791L135.191 119.057L135.331 117.347L135.434 116.064L135.614 113.824L135.684 112.965L135.782 111.761L134.44 111.758ZM135.157 112.547L134.928 112.318H135.177L135.157 112.547ZM135.098 113.278L135.076 113.558L134.009 114.625L132.786 113.401L133.88 112.307H134.138L135.098 113.278ZM134.79 117.092L134.009 117.873L132.786 116.649L134.009 115.429L134.849 116.269L134.79 117.092ZM123.45 116.274L124.29 115.434L125.514 116.655L124.29 117.879L123.512 117.097L123.45 116.274ZM133.614 115.031L132.391 116.255L131.167 115.031L132.391 113.807L133.614 115.031ZM131.691 112.318H133.091L132.391 113.018L131.691 112.318ZM131.993 116.649L130.772 117.873L129.56 116.649L130.784 115.429L131.993 116.649ZM127.93 118.268L129.154 117.047L130.375 118.268L129.154 119.48L127.93 118.268ZM128.756 119.886L127.533 121.11L126.312 119.889L127.536 118.665L128.756 119.886ZM130.772 118.665L131.993 119.889L130.772 121.11L129.56 119.886L130.772 118.665ZM129.154 116.255L127.93 115.031L129.154 113.807L130.375 115.031L129.154 116.255ZM128.756 116.649L127.536 117.873L126.312 116.649L127.536 115.429L128.756 116.649ZM125.92 116.255L124.699 115.031L125.92 113.807L127.144 115.031L125.92 116.255ZM125.92 117.047L127.144 118.268L125.92 119.48L124.699 118.257L125.92 117.047ZM127.144 121.507L125.92 122.728L124.699 121.507L125.92 120.284L127.144 121.507ZM127.538 121.902L128.762 123.126L127.541 124.349L126.312 123.12L127.538 121.902ZM127.936 121.507L129.16 120.284L130.38 121.507L129.16 122.728L127.936 121.507ZM130.778 121.902L131.999 123.126L130.778 124.349L129.56 123.12L130.778 121.902ZM132.396 123.521L133.62 124.744L132.828 125.537H131.965L131.173 124.744L132.396 123.521ZM131.173 121.507L132.396 120.284L133.62 121.507L132.396 122.728L131.173 121.507ZM131.173 118.268L132.396 117.047L133.62 118.268L132.391 119.48L131.173 118.268ZM131.999 113.413L130.778 114.636L129.56 113.413L130.655 112.318H130.912L131.999 113.413ZM129.16 113.018L128.46 112.318H129.86L129.16 113.018ZM128.762 113.413L127.541 114.636L126.318 113.413L127.412 112.318H127.67L128.762 113.413ZM126.62 112.318L125.92 113.018L125.223 112.318H126.62ZM124.43 112.318L125.525 113.413L124.302 114.636L123.238 113.569L123.215 113.289L124.173 112.329L124.43 112.318ZM123.383 112.318L123.156 112.545L123.137 112.318H123.383ZM123.308 114.432L123.907 115.031L123.4 115.541L123.308 114.432ZM123.641 118.534L123.593 117.954L123.907 118.268L123.627 118.534H123.641ZM123.7 119.27L124.302 118.665L125.525 119.889L124.302 121.11L123.809 120.617L123.7 119.27ZM123.882 121.533V121.479L123.91 121.507L123.884 121.533H123.882ZM124.094 124.139L123.94 122.263L124.302 121.902L125.525 123.126L124.302 124.347L124.094 124.139ZM124.206 125.539L124.184 125.259L124.302 125.142L124.699 125.539H124.206ZM124.699 124.747L125.92 123.523L127.144 124.747L126.351 125.539H125.489L124.699 124.747ZM127.144 125.539L127.541 125.142L127.939 125.539H127.144ZM128.728 125.539L127.936 124.747L129.16 123.523L130.38 124.747L129.591 125.539H128.728ZM130.38 125.539L130.778 125.142L131.176 125.539H130.38ZM134.11 125.539H133.617L134.015 125.142L134.132 125.259L134.11 125.539ZM134.225 124.139L134.015 124.347L132.786 123.12L134.009 121.897L134.37 122.258L134.225 124.139ZM134.44 121.477V121.533L134.415 121.507L134.446 121.477H134.44ZM134.51 120.617L134.015 121.11L132.791 119.889L134.015 118.665L134.62 119.27L134.51 120.617ZM134.678 118.537L134.398 118.257L134.715 117.943L134.678 118.537ZM135.006 114.44L134.916 115.56L134.404 115.048L135.006 114.446V114.44Z" fill="white"/>
</g>
<path d="M122.221 112.812H136.087C136.34 112.812 136.546 112.607 136.546 112.353V111.712C136.546 111.458 136.34 111.253 136.087 111.253H122.221C121.968 111.253 121.762 111.458 121.762 111.712V112.353C121.762 112.607 121.968 112.812 122.221 112.812Z" fill="#CC9B03"/>
<path d="M135.02 125.258H123.285C123.032 125.258 122.826 125.463 122.826 125.717V126.358C122.826 126.612 123.032 126.817 123.285 126.817H135.02C135.274 126.817 135.479 126.612 135.479 126.358V125.717C135.479 125.463 135.274 125.258 135.02 125.258Z" fill="#CC9B03"/>
<path d="M59.7448 68.8359C60.7108 69.1383 60.8648 74.7523 60.8648 74.7523H60.3048C60.3048 74.7523 60.5848 68.8023 59.1428 68.9871L59.7448 68.8359Z" fill="#263238"/>
<path opacity="0.2" d="M59.7448 68.8359C60.7108 69.1383 60.8648 74.7523 60.8648 74.7523H60.3048C60.3048 74.7523 60.5848 68.8023 59.1428 68.9871L59.7448 68.8359Z" fill="black"/>
<path d="M60.9629 121.951L59.1961 122.262L58.4709 119.854L57.8101 117.645L59.8485 116.934L60.4393 119.591L60.9629 121.951Z" fill="#E4897B"/>
<path opacity="0.2" d="M60.4476 119.645L58.4792 119.905L57.8156 117.671L59.8484 116.945L60.4476 119.645Z" fill="black"/>
<path d="M49.1721 122.764H47.3773L47.0833 120.235L46.8173 117.931L48.9453 117.578L49.0657 120.322L49.1721 122.764Z" fill="#E4897B"/>
<path opacity="0.2" d="M49.0657 120.347L47.0833 120.26L46.8173 117.944L48.9453 117.586L49.0657 120.347Z" fill="black"/>
<path d="M51.6024 126.314C51.3167 126.085 50.9924 125.909 50.6448 125.793C50.6448 125.793 49.6032 124.76 49.102 121.649L47.7384 121.294C47.5069 121.238 47.2641 121.255 47.0424 121.342C46.8207 121.428 46.6308 121.581 46.498 121.778C46.4602 121.833 46.4309 121.893 46.4112 121.957C46.3406 122.291 46.2919 122.628 46.2656 122.968C46.1284 124.021 46.246 126.384 46.246 126.384H46.4924L46.5904 124.239C46.6268 123.511 47.184 124.365 47.3436 125.149C47.5032 125.933 47.842 126.768 49.438 126.807C51.3 126.843 52.0728 126.759 51.6024 126.314Z" fill="#263238"/>
<path d="M63.5024 126.107C63.2167 125.878 62.8925 125.702 62.5448 125.586C62.5448 125.586 61.5032 124.553 61.002 121.442L59.6384 121.087C59.4069 121.031 59.1641 121.048 58.9424 121.135C58.7207 121.221 58.5308 121.374 58.398 121.571C58.3602 121.626 58.3309 121.686 58.3112 121.75C58.2406 122.084 58.192 122.421 58.1656 122.761C58.0284 123.814 58.146 126.177 58.146 126.177H58.3924L58.4904 124.032C58.5268 123.304 59.084 124.158 59.2436 124.942C59.4032 125.726 59.742 126.561 61.338 126.6C63.2 126.636 63.9728 126.563 63.5024 126.107Z" fill="#263238"/>
<path d="M60.6156 118.242L57.712 118.751C54.7804 111.452 52.6972 105.359 51.2244 100.302C50.432 97.5748 49.7712 95.15 49.298 92.9968L49.3848 100.943V118.844H46.5232C39.3524 84.6836 44.4344 76.8967 44.4344 76.8967L53.0164 75.4688C53.3544 77.0559 53.5937 78.6624 53.7332 80.2791L54.1196 83.1239L57.4796 100.45L60.6156 118.242Z" fill="#CC9B03"/>
<g opacity="0.4">
<path d="M60.6156 118.242L57.712 118.751C54.7804 111.452 52.6972 105.359 51.2244 100.302C50.432 97.5748 49.7712 95.15 49.298 92.9968L49.3848 100.943V118.844H46.5232C39.3524 84.6836 44.4344 76.8967 44.4344 76.8967L53.0164 75.4688C53.3544 77.0559 53.5937 78.6624 53.7332 80.2791L54.1196 83.1239L57.4796 100.45L60.6156 118.242Z" fill="white"/>
</g>
<path d="M63.1748 67.0345L66.07 64.1729C66.07 64.1729 66.1708 63.4057 66.4508 63.1929C66.7308 62.9801 68.7188 62.2578 68.9708 62.4174C69.2228 62.577 69.5504 64.1842 69.2116 64.4782C68.8728 64.7722 67.064 65.1474 66.8792 65.1166L63.746 68.835L63.1748 67.0345Z" fill="#EEC1BB"/>
<path d="M52.8036 61.8203C54.0524 62.4839 58.4848 68.6803 59.14 68.9883C59.7952 69.2963 64.7848 65.2475 64.7848 65.2475L65.6248 66.6839C65.6248 66.6839 61.52 72.4715 59.2156 72.1915C56.9112 71.9115 52.4648 67.0115 52.4648 67.0115L52.8036 61.8203Z" fill="#263238"/>
<path opacity="0.4" d="M52.8036 61.8203C54.0524 62.4839 58.4848 68.6803 59.14 68.9883C59.7952 69.2963 64.7848 65.2475 64.7848 65.2475L65.6248 66.6839C65.6248 66.6839 61.52 72.4715 59.2156 72.1915C56.9112 71.9115 52.4648 67.0115 52.4648 67.0115L52.8036 61.8203Z" fill="white"/>
<path d="M64.5104 65.4018L64.8548 65.0742L65.7648 66.6142L65.44 67.2442L64.5104 65.4018Z" fill="#CC9B03"/>
<path opacity="0.2" d="M54.24 68.8184C53.204 67.83 52.4592 67.0096 52.4592 67.0096L52.5376 65.7776L52.9268 64.582C53.4625 65.1358 53.8605 65.8077 54.0886 66.5436C54.3167 67.2795 54.3686 68.0588 54.24 68.8184Z" fill="black"/>
<path opacity="0.2" d="M51.2244 100.302C50.432 97.5746 49.8244 95.1498 49.34 92.9966C49.382 90.4475 49.569 87.9029 49.9 85.375C49.9 85.375 51.16 95.203 51.2244 100.302Z" fill="black"/>
<path d="M53.2208 74.9425C53.5708 68.7825 53.4168 65.3889 53.2572 63.6949C53.0808 61.8889 52.8036 61.8217 52.8036 61.8217C52.8036 61.8217 50.8436 61.6313 49.144 61.6453C47.8291 61.6897 46.5191 61.8282 45.224 62.0597C43.9913 62.2647 42.7749 62.5575 41.584 62.9361C41.7819 63.4961 41.9639 64.0337 42.13 64.5489C42.354 65.2153 42.5528 65.8369 42.732 66.4137C43.0708 67.4973 43.3312 68.4325 43.5412 69.2697C44.0753 71.378 44.3878 73.5364 44.4736 75.7097C44.4736 75.7097 42.3176 81.3377 41.8976 85.4677L49.0376 86.2377L50.0176 82.1077L50.9976 86.3777L54.9876 84.9777L53.2208 74.9425Z" fill="#263238"/>
<path opacity="0.4" d="M53.2208 74.9425C53.5708 68.7825 53.4168 65.3889 53.2572 63.6949C53.0808 61.8889 52.8036 61.8217 52.8036 61.8217C52.8036 61.8217 50.8436 61.6313 49.144 61.6453C47.8291 61.6897 46.5191 61.8282 45.224 62.0597C43.9913 62.2647 42.7749 62.5575 41.584 62.9361C41.7819 63.4961 41.9639 64.0337 42.13 64.5489C42.354 65.2153 42.5528 65.8369 42.732 66.4137C43.0708 67.4973 43.3312 68.4325 43.5412 69.2697C44.0753 71.378 44.3878 73.5364 44.4736 75.7097C44.4736 75.7097 42.3176 81.3377 41.8976 85.4677L49.0376 86.2377L50.0176 82.1077L50.9976 86.3777L54.9876 84.9777L53.2208 74.9425Z" fill="white"/>
<path d="M45.84 61.3174C45.84 61.3174 46.8676 60.497 48.7044 61.1522L48.9536 62.0874C48.9536 62.0874 47.3772 62.6838 46.582 62.527C45.7868 62.3702 45.84 61.3174 45.84 61.3174Z" fill="#CC9B03"/>
<path opacity="0.2" d="M45.84 61.3174C45.84 61.3174 46.8676 60.497 48.7044 61.1522L48.9536 62.0874C48.9536 62.0874 47.3772 62.6838 46.582 62.527C45.7868 62.3702 45.84 61.3174 45.84 61.3174Z" fill="black"/>
<path opacity="0.2" d="M43.88 70.7758C43.7848 70.3054 43.6728 69.8042 43.5356 69.2666C43.4488 68.925 43.3536 68.5666 43.2556 68.1858C43.5356 67.231 43.8156 67.9758 43.8156 67.9758C43.9899 68.8994 44.0116 69.8452 43.88 70.7758Z" fill="black"/>
<path d="M49.046 62.0173C48.9554 61.9726 48.8618 61.9343 48.766 61.9025C48.5644 61.7429 48.3208 61.3593 48.332 60.4269C48.3392 60.06 48.3728 59.6941 48.4328 59.3321L45.84 58.8477C45.84 58.8477 46.7248 60.5949 45.9856 61.8941C45.7336 62.0061 45.5824 62.1741 45.6076 62.3757C45.8036 63.8765 49.0264 65.3269 49.0264 65.3269C49.0264 65.3269 50.6 62.8769 49.046 62.0173Z" fill="#EEC1BB"/>
<path opacity="0.2" d="M48.444 59.3321C48.384 59.6941 48.3504 60.06 48.3432 60.4269C46.5904 60.4269 45.8484 58.8477 45.8484 58.8477L48.444 59.3321Z" fill="black"/>
<path d="M47.2848 50.7678C47.2848 50.7678 50.32 50.3842 50.88 52.8398C51.0426 53.5362 51.004 54.2644 50.7685 54.9397C50.533 55.6149 50.1104 56.2092 49.55 56.6534L47.2848 50.7678Z" fill="#263238"/>
<path d="M47.0104 52.0752C49.2672 51.952 50.0596 53.1196 50.3508 55.4352C50.7176 58.3304 50.1856 60.4304 47.3296 59.9656C43.4516 59.3328 43.2612 52.2796 47.0104 52.0752Z" fill="#EEC1BB"/>
<path d="M48.8864 55.3906C49.0855 55.7176 49.3233 56.0194 49.5948 56.2894C49.5329 56.3852 49.4458 56.4621 49.343 56.5115C49.2402 56.5609 49.1258 56.581 49.0124 56.5694L48.8864 55.3906Z" fill="#D4827D"/>
<path d="M47.4949 55.2807C47.5089 55.4655 47.4193 55.6223 47.2961 55.6335C47.1729 55.6447 47.0609 55.5019 47.0469 55.3143C47.0329 55.1267 47.1225 54.9727 47.2457 54.9615C47.3689 54.9503 47.4809 55.0959 47.4949 55.2807Z" fill="#263238"/>
<path d="M47.1952 54.9756L47.5844 54.7852C47.5844 54.7852 47.4108 55.1408 47.1952 54.9756Z" fill="#263238"/>
<path d="M49.7936 55.062C49.7936 55.2468 49.718 55.4036 49.5948 55.4148C49.4716 55.426 49.3596 55.2804 49.3456 55.0956C49.3316 54.9108 49.4184 54.754 49.5444 54.7428C49.6704 54.7316 49.7796 54.8772 49.7936 55.062Z" fill="#263238"/>
<path d="M49.48 54.7568L49.872 54.5664C49.872 54.5664 49.7096 54.922 49.48 54.7568Z" fill="#263238"/>
<path d="M47.3856 53.7252C47.206 53.7133 47.026 53.7427 46.8596 53.8112C46.6931 53.8796 46.5445 53.9853 46.4252 54.12" stroke="#263238" stroke-width="0.686238" stroke-linecap="round" stroke-linejoin="round"/>
<path d="M49.0208 53.5409C49.1727 53.493 49.3336 53.4802 49.4912 53.5035C49.6488 53.5268 49.7991 53.5855 49.9308 53.6753" stroke="#263238" stroke-width="0.686238" stroke-linecap="round" stroke-linejoin="round"/>
<path d="M44.7509 56.0134C44.7509 56.0134 45.7057 54.1038 45.4677 52.6814C45.4677 52.6814 49.8385 50.6094 50.3089 55.1342C50.3089 55.1342 50.5245 51.0798 46.6409 51.2142C42.7573 51.3486 43.0821 57.013 45.1793 58.5922C45.1793 58.581 44.1601 57.209 44.7509 56.0134Z" fill="#263238"/>
<path d="M47.6712 50.5987C47.6712 50.5987 49.5248 50.1423 50.0512 50.6323C50.5776 51.1223 46.8312 54.5887 44.8712 54.9387C44.8712 54.9387 44.2048 57.1087 44.7312 58.1223C44.7312 58.1223 42.5248 57.3523 42.4212 53.9923C42.3176 50.6323 45.84 49.3667 47.6712 50.5987Z" fill="#263238"/>
<path d="M45.1455 56.4787C45.1081 56.2189 44.9692 55.9846 44.7592 55.8272C44.5492 55.6697 44.2854 55.6019 44.0255 55.6387C43.3311 55.7535 43.0763 57.2067 44.8347 57.4587C45.0923 57.4755 45.2183 57.2263 45.1455 56.4787Z" fill="#EEC1BB"/>
<path d="M44.16 51.9248C44.16 51.9248 43.39 49.9648 41.3236 50.1048C39.2572 50.2448 38.9436 53.4648 40.03 55.8448C41.1164 58.2248 40.3912 59.0004 40.3912 59.0004C40.3912 59.0004 41.5448 58.8604 41.5448 56.724C41.6087 57.1765 41.6321 57.6338 41.6148 58.0904C41.6148 58.0904 42.3848 57.004 41.6512 54.9404C40.9176 52.8768 43.2612 53.8204 43.2612 53.8204L44.16 51.9248Z" fill="#263238"/>
<path d="M49.8748 50.8047C49.8748 50.8047 48.8948 53.9547 46.2712 54.8983" stroke="#263238" stroke-width="0.686238" stroke-linecap="round" stroke-linejoin="round"/>
<path d="M47.24 57.3867C47.4101 57.5554 47.6121 57.6886 47.8342 57.7785C48.0563 57.8684 48.294 57.9132 48.5336 57.9103" stroke="#263238" stroke-width="0.686238" stroke-linecap="round" stroke-linejoin="round"/>
<path d="M45.84 61.3175C45.84 61.3175 46.3048 62.2611 47.8896 62.9331L48.5364 63.9775V62.7875C48.7149 62.2621 48.7724 61.7031 48.7044 61.1523L49.2308 62.1463C49.3902 62.1835 49.5352 62.2663 49.6481 62.3847C49.761 62.5031 49.8369 62.6518 49.8664 62.8127C50.0344 63.4231 49.1328 65.6127 49.1328 65.6127C49.1328 65.6127 46.2516 64.5795 45.6048 63.2831C45.126 62.3171 45.7 62.0847 45.7 62.0847L45.84 61.3175Z" fill="#CC9B03"/>
<path d="M49.6004 66.4142C49.6004 66.4552 49.5883 66.4953 49.5655 66.5293C49.5427 66.5634 49.5104 66.59 49.4725 66.6057C49.4347 66.6213 49.393 66.6254 49.3528 66.6174C49.3126 66.6095 49.2757 66.5897 49.2467 66.5607C49.2177 66.5318 49.198 66.4948 49.19 66.4547C49.182 66.4145 49.1861 66.3728 49.2018 66.3349C49.2175 66.2971 49.244 66.2647 49.2781 66.242C49.3122 66.2192 49.3523 66.207 49.3932 66.207C49.4482 66.207 49.5009 66.2289 49.5397 66.2677C49.5786 66.3066 49.6004 66.3593 49.6004 66.4142Z" fill="#263238"/>
<path d="M50.1043 69.6525C50.1043 69.6935 50.0922 69.7336 50.0694 69.7676C50.0467 69.8017 50.0143 69.8283 49.9764 69.8439C49.9386 69.8596 49.8969 69.8637 49.8567 69.8557C49.8165 69.8477 49.7796 69.828 49.7506 69.799C49.7216 69.77 49.7019 69.7331 49.6939 69.6929C49.6859 69.6527 49.69 69.6111 49.7057 69.5732C49.7214 69.5354 49.748 69.503 49.782 69.4802C49.8161 69.4575 49.8562 69.4453 49.8971 69.4453C49.9521 69.4453 50.0048 69.4671 50.0437 69.506C50.0825 69.5449 50.1043 69.5976 50.1043 69.6525Z" fill="#263238"/>
<path d="M50.32 73.5783C50.32 73.6193 50.3079 73.6593 50.2851 73.6934C50.2624 73.7275 50.23 73.754 50.1921 73.7697C50.1543 73.7854 50.1126 73.7895 50.0724 73.7815C50.0322 73.7735 49.9953 73.7538 49.9663 73.7248C49.9373 73.6958 49.9176 73.6589 49.9096 73.6187C49.9016 73.5785 49.9057 73.5369 49.9214 73.499C49.9371 73.4611 49.9637 73.4288 49.9977 73.406C50.0318 73.3832 50.0719 73.3711 50.1128 73.3711C50.1678 73.3711 50.2205 73.3929 50.2594 73.4318C50.2982 73.4706 50.32 73.5233 50.32 73.5783Z" fill="#263238"/>
<path d="M50.4908 77.6916C50.4908 77.7326 50.4787 77.7726 50.4559 77.8067C50.4331 77.8408 50.4008 77.8673 50.3629 77.883C50.325 77.8987 50.2834 77.9028 50.2432 77.8948C50.203 77.8868 50.1661 77.8671 50.1371 77.8381C50.1081 77.8091 50.0884 77.7722 50.0804 77.732C50.0724 77.6918 50.0765 77.6501 50.0922 77.6123C50.1079 77.5744 50.1344 77.5421 50.1685 77.5193C50.2026 77.4965 50.2426 77.4844 50.2836 77.4844C50.3386 77.4844 50.3913 77.5062 50.4301 77.5451C50.469 77.5839 50.4908 77.6366 50.4908 77.6916Z" fill="#263238"/>
<path d="M66.756 63.7585C68.0723 63.0943 69.5398 62.7873 71.012 62.8681L72.5716 64.5089C72.5716 64.5089 71.2416 64.1869 68.24 64.8785L66.756 63.7585Z" fill="#CC9B03"/>
<path opacity="0.4" d="M66.756 63.7585C68.0723 63.0943 69.5398 62.7873 71.012 62.8681L72.5716 64.5089C72.5716 64.5089 71.2416 64.1869 68.24 64.8785L66.756 63.7585Z" fill="black"/>
<path d="M66.7393 63.6356C68.0173 62.9016 69.4654 62.5154 70.9393 62.5156L72.5857 64.0696C72.5857 64.0696 71.2389 63.8316 68.2765 64.6716L66.7393 63.6356Z" fill="#CC9B03"/>
<path opacity="0.2" d="M66.7393 63.6356C68.0173 62.9016 69.4654 62.5154 70.9393 62.5156L72.5857 64.0696C72.5857 64.0696 71.2389 63.8316 68.2765 64.6716L66.7393 63.6356Z" fill="black"/>
<path d="M66.8596 63.4202L68.3688 64.6774C69.8448 63.9104 71.5305 63.645 73.1708 63.9214L71.2752 62.2554C71.2752 62.2554 68.52 61.9362 66.8596 63.4202Z" fill="#CC9B03"/>
<path opacity="0.2" d="M67.2432 63.4507L68.3016 64.3859C68.3016 64.3859 70.4604 63.2323 72.594 63.6579L71.194 62.3839C71.194 62.3839 68.8 62.0815 67.2432 63.4507Z" fill="black"/>
<path d="M70.214 63.0394C70.214 63.2662 69.9676 63.451 69.654 63.451C69.3404 63.451 69.094 63.2662 69.094 63.0394C69.094 62.8126 69.3404 62.625 69.654 62.625C69.9676 62.625 70.214 62.8098 70.214 63.0394Z" fill="#CC9B03"/>
<path d="M56.1692 80.9152C56.2728 79.3556 57.2388 74.7552 57.2388 74.7552C57.6621 74.4695 58.1078 74.2185 58.5716 74.0048C59.2817 73.7503 60.027 73.6077 60.7808 73.582C60.7808 73.582 61.2204 79.3864 60.7808 80.022C60.3412 80.6576 56.046 82.7604 56.1692 80.9152Z" fill="#263238"/>
<path d="M57.2388 74.7527C57.2388 74.7527 57.9304 68.5731 59.7448 68.8363C59.7448 68.8363 58.3112 69.1387 57.7848 74.9543L57.2388 74.7527Z" fill="#263238"/>
<path d="M50.8353 71.8258C51.1573 71.7558 51.9917 69.653 51.8853 69.3954C51.7789 69.1378 45.5601 70.0058 45.5601 70.0058L45.9689 72.2738L50.8353 71.8258Z" fill="#CC9B03"/>
<path opacity="0.2" d="M50.8353 71.8258C51.1573 71.7558 51.9917 69.653 51.8853 69.3954C51.7789 69.1378 45.5601 70.0058 45.5601 70.0058L45.9689 72.2738L50.8353 71.8258Z" fill="black"/>
<path d="M42.9953 70.0472C42.9953 70.0472 49.6313 69.1036 49.9281 69.2072C50.2249 69.3108 50.8353 71.828 50.8353 71.828C50.8353 71.828 45.0869 72.738 44.5857 72.5924C44.0845 72.4468 42.7601 70.3944 42.9953 70.0472Z" fill="#CC9B03"/>
<path d="M40.7412 74.4902L44.1852 72.3174C44.1852 72.3174 44.4484 71.5922 44.7676 71.4438C45.0868 71.2954 47.184 71.0182 47.3884 71.2282C47.5928 71.4382 47.5732 73.0762 47.1784 73.2918C46.7836 73.5074 44.9384 73.4822 44.7648 73.4122L40.9036 76.3606L40.7412 74.4902Z" fill="#EEC1BB"/>
<path d="M41.5812 62.9336C41.5812 62.9336 43.8212 66.204 43.5048 69.004L40.52 73.9488L42.5248 72.924L43.4348 74.6376C43.4348 74.6376 41.1248 78.1964 38.1848 77.3564C35.2448 76.5164 41.5812 62.9336 41.5812 62.9336Z" fill="#263238"/>
<path opacity="0.4" d="M41.5812 62.9336C41.5812 62.9336 43.8212 66.204 43.5048 69.004L40.52 73.9488L42.5248 72.924L43.4348 74.6376C43.4348 74.6376 41.1248 78.1964 38.1848 77.3564C35.2448 76.5164 41.5812 62.9336 41.5812 62.9336Z" fill="white"/>
<path d="M42.3148 72.8311L43.46 74.9563L43.7148 74.3487L42.8048 72.6211L42.3148 72.8311Z" fill="#CC9B03"/>
</svg>
