<svg width="64" height="64" viewBox="0 0 64 64" fill="none" xmlns="http://www.w3.org/2000/svg">
<mask id="mask0_367_273" style="mask-type:alpha" maskUnits="userSpaceOnUse" x="0" y="0" width="64" height="64">
<rect width="64" height="64" fill="#D9D9D9"/>
</mask>
<g mask="url(#mask0_367_273)">
<path d="M17.3333 42.7179C19.5418 42.7179 21.6904 42.9684 23.7793 43.4693C25.8682 43.9702 27.9418 44.7557 30 45.8259V19.6099C28.1267 18.3895 26.0993 17.4742 23.918 16.8639C21.7367 16.2537 19.5418 15.9486 17.3333 15.9486C15.7333 15.9486 14.2384 16.0742 12.8487 16.3253C11.4589 16.5768 10.0307 16.9879 8.564 17.5586C8.35911 17.6271 8.21378 17.7255 8.128 17.8539C8.04267 17.9819 8 18.1228 8 18.2766V43.4973C8 43.7368 8.08556 43.9122 8.25667 44.0233C8.42733 44.1344 8.61533 44.1471 8.82067 44.0613C10.0856 43.6306 11.4204 43.2991 12.8253 43.0666C14.2307 42.8342 15.7333 42.7179 17.3333 42.7179ZM34 45.8259C36.0582 44.7557 38.1318 43.9702 40.2207 43.4693C42.3096 42.9684 44.4582 42.7179 46.6667 42.7179C48.2667 42.7179 49.7693 42.8342 51.1747 43.0666C52.5796 43.2991 53.9144 43.6306 55.1793 44.0613C55.3847 44.1471 55.5727 44.1344 55.7433 44.0233C55.9144 43.9122 56 43.7368 56 43.4973V18.2766C56 18.1228 55.9573 17.9862 55.872 17.8666C55.7862 17.7471 55.6409 17.6444 55.436 17.5586C53.9693 16.9879 52.5411 16.5768 51.1513 16.3253C49.7616 16.0742 48.2667 15.9486 46.6667 15.9486C44.4582 15.9486 42.2633 16.2537 40.082 16.8639C37.9007 17.4742 35.8733 18.3895 34 19.6099V45.8259ZM32 51.6919C29.8498 50.1057 27.5302 48.8802 25.0413 48.0153C22.5524 47.1504 19.9831 46.7179 17.3333 46.7179C15.7062 46.7179 14.108 46.8982 12.5387 47.2586C10.9693 47.6195 9.45644 48.1504 8 48.8513C7.04978 49.2886 6.14556 49.2193 5.28733 48.6433C4.42911 48.0673 4 47.2511 4 46.1946V17.2413C4 16.6666 4.148 16.1273 4.444 15.6233C4.73956 15.1188 5.166 14.7555 5.72333 14.5333C7.52822 13.6546 9.40933 13.0042 11.3667 12.5819C13.324 12.1597 15.3129 11.9486 17.3333 11.9486C19.928 11.9486 22.4631 12.3033 24.9387 13.0126C27.4138 13.7224 29.7676 14.7695 32 16.1539C34.2324 14.7695 36.5862 13.7224 39.0613 13.0126C41.5369 12.3033 44.072 11.9486 46.6667 11.9486C48.6871 11.9486 50.676 12.1597 52.6333 12.5819C54.5907 13.0042 56.4718 13.6546 58.2767 14.5333C58.834 14.7555 59.2605 15.1188 59.556 15.6233C59.852 16.1273 60 16.6666 60 17.2413V46.1946C60 47.2511 59.5538 48.0588 58.6613 48.6179C57.7689 49.1766 56.8304 49.2373 55.846 48.7999C54.4069 48.1159 52.9156 47.5979 51.372 47.2459C49.8284 46.8939 48.26 46.7179 46.6667 46.7179C44.0169 46.7179 41.4476 47.1504 38.9587 48.0153C36.4698 48.8802 34.1502 50.1057 32 51.6919Z" fill="#287838"/>
</g>
</svg>
