<svg width="64" height="64" viewBox="0 0 64 64" fill="none" xmlns="http://www.w3.org/2000/svg">
<mask id="mask0_367_265" style="mask-type:alpha" maskUnits="userSpaceOnUse" x="0" y="0" width="64" height="64">
<rect width="64" height="64" fill="#D9D9D9"/>
</mask>
<g mask="url(#mask0_367_265)">
<path d="M6 57.9999V37.6413L16.6667 32.9079V24.2053L30 17.5126V12.4613H24.6667V8.46126H30V3.12793H34V8.46126H39.3333V12.4613H34V17.5126L47.3333 24.2053V32.9079L58 37.6413V57.9999H35.3333V47.8973C35.3333 46.9706 35.0093 46.1835 34.3613 45.5359C33.7138 44.8879 32.9267 44.5639 32 44.5639C31.0733 44.5639 30.2862 44.8879 29.6387 45.5359C28.9907 46.1835 28.6667 46.9706 28.6667 47.8973V57.9999H6ZM10 53.9999H24.6667V47.8153C24.6667 45.7486 25.3793 43.9962 26.8047 42.5579C28.23 41.1193 29.9607 40.3999 31.9967 40.3999C34.0331 40.3999 35.7649 41.1193 37.192 42.5579C38.6196 43.9962 39.3333 45.7486 39.3333 47.8153V53.9999H54V40.0973L43.3333 35.3066V26.3899L32 20.5899L20.6667 26.3899V35.3066L10 40.0973V53.9999ZM34.474 34.4679C35.1496 33.7888 35.4873 32.9642 35.4873 31.9939C35.4873 31.0237 35.1476 30.201 34.468 29.5259C33.7889 28.8504 32.9642 28.5126 31.994 28.5126C31.0238 28.5126 30.2011 28.8524 29.526 29.5319C28.8504 30.211 28.5127 31.0357 28.5127 32.0059C28.5127 32.9762 28.8524 33.7988 29.532 34.4739C30.2111 35.1495 31.0358 35.4873 32.006 35.4873C32.9762 35.4873 33.7989 35.1475 34.474 34.4679Z" fill="#CC9B03"/>
</g>
</svg>
