<svg width="224" height="224" viewBox="0 0 224 224" fill="none" xmlns="http://www.w3.org/2000/svg">
<path d="M112 214.601C170.924 214.601 218.691 187.024 218.691 153.006C218.691 118.987 170.924 91.4102 112 91.4102C53.0761 91.4102 5.30884 118.987 5.30884 153.006C5.30884 187.024 53.0761 214.601 112 214.601Z" fill="#F0F0F0"/>
<path d="M47.5551 165.595C66.0277 165.595 81.0028 157.303 81.0028 147.075C81.0028 136.847 66.0277 128.555 47.5551 128.555C29.0825 128.555 14.1074 136.847 14.1074 147.075C14.1074 157.303 29.0825 165.595 47.5551 165.595Z" fill="#E0E0E0"/>
<path d="M27.1039 177.632L79.5199 207.886C79.7882 208.02 80.0843 208.091 80.3845 208.091C80.6848 208.091 80.9809 208.02 81.2492 207.886L173.94 154.368C174.044 154.332 174.134 154.264 174.198 154.175C174.262 154.085 174.296 153.978 174.296 153.868C174.296 153.758 174.262 153.651 174.198 153.561C174.134 153.472 174.044 153.404 173.94 153.368L121.524 123.115C121.257 122.98 120.962 122.91 120.662 122.91C120.362 122.91 120.067 122.98 119.8 123.115L27.1039 176.633C27.0001 176.669 26.91 176.737 26.8463 176.826C26.7825 176.916 26.7483 177.023 26.7483 177.133C26.7483 177.243 26.7825 177.35 26.8463 177.439C26.91 177.529 27.0001 177.596 27.1039 177.632Z" fill="#E0E0E0"/>
<path d="M172.359 192.752C188.152 192.752 200.955 185.361 200.955 176.243C200.955 167.126 188.152 159.734 172.359 159.734C156.566 159.734 143.763 167.126 143.763 176.243C143.763 185.361 156.566 192.752 172.359 192.752Z" fill="#E0E0E0"/>
<path d="M50.7539 162.239C50.6559 162.239 50.5588 162.219 50.4683 162.182C50.3778 162.144 50.2956 162.089 50.2265 162.019C50.1574 161.95 50.1027 161.867 50.0656 161.777C50.0285 161.686 50.0097 161.589 50.0103 161.491V113.658C50.0103 113.461 50.0886 113.271 50.2281 113.132C50.3676 112.992 50.5567 112.914 50.7539 112.914C50.9512 112.914 51.1403 112.992 51.2798 113.132C51.4193 113.271 51.4976 113.461 51.4976 113.658V161.491C51.4976 161.688 51.4194 161.878 51.2801 162.018C51.1407 162.158 50.9516 162.238 50.7539 162.239Z" fill="#455A64"/>
<path d="M80.3487 144.826C80.2019 144.827 80.0579 144.785 79.9345 144.705C79.8112 144.626 79.7138 144.512 79.6543 144.378L64.9868 107.252C64.9143 107.068 64.9177 106.863 64.9963 106.682C65.0749 106.501 65.2221 106.359 65.4057 106.286C65.5893 106.214 65.7941 106.217 65.9752 106.296C66.1562 106.374 66.2986 106.522 66.3711 106.705L81.0386 143.809C81.0832 143.921 81.0995 144.043 81.0862 144.163C81.0729 144.284 81.0304 144.399 80.9624 144.499C80.8944 144.6 80.803 144.682 80.696 144.739C80.5891 144.795 80.4699 144.825 80.3487 144.826Z" fill="#455A64"/>
<path d="M78.5837 140.367C78.4829 140.367 78.3833 140.346 78.2908 140.306C78.1984 140.266 78.1151 140.208 78.0461 140.134L50.7494 111.252L23.5065 140.009C23.4406 140.084 23.3602 140.145 23.27 140.189C23.1799 140.232 23.0819 140.257 22.982 140.261C22.8821 140.266 22.7822 140.251 22.6885 140.216C22.5947 140.181 22.5089 140.128 22.4362 140.059C22.3635 139.99 22.3055 139.907 22.2655 139.816C22.2256 139.724 22.2045 139.625 22.2036 139.525C22.2028 139.425 22.2221 139.326 22.2604 139.233C22.2988 139.141 22.3554 139.057 22.4269 138.987L50.2029 109.657C50.2725 109.583 50.3566 109.524 50.4498 109.484C50.543 109.444 50.6435 109.424 50.7449 109.424C50.8457 109.424 50.9452 109.445 51.0377 109.485C51.1301 109.525 51.2134 109.584 51.2825 109.657L79.1168 139.113C79.1839 139.184 79.2363 139.267 79.271 139.358C79.3058 139.449 79.3221 139.546 79.3192 139.643C79.3163 139.741 79.2942 139.837 79.254 139.926C79.2139 140.014 79.1566 140.094 79.0854 140.161C78.9508 140.292 78.7712 140.365 78.5837 140.367Z" fill="#455A64"/>
<path d="M21.1592 144.825C21.0655 144.824 20.9727 144.806 20.8859 144.771C20.7946 144.736 20.7113 144.683 20.6406 144.615C20.57 144.548 20.5134 144.467 20.4743 144.377C20.4351 144.288 20.4141 144.191 20.4125 144.093C20.4108 143.996 20.4286 143.898 20.4648 143.808L35.1323 106.682C35.2048 106.498 35.3472 106.351 35.5283 106.272C35.7093 106.194 35.9142 106.19 36.0977 106.263C36.2813 106.335 36.4286 106.478 36.5071 106.659C36.5857 106.84 36.5891 107.045 36.5166 107.228L21.8491 144.354C21.7944 144.493 21.6994 144.611 21.5764 144.695C21.4534 144.779 21.308 144.824 21.1592 144.825Z" fill="#455A64"/>
<path d="M79.3363 139.221L81.2761 144.337C81.2802 144.38 81.2802 144.424 81.2761 144.467V144.561C81.2203 144.699 81.1171 144.814 80.9849 144.883C80.8017 144.976 80.5991 145.025 80.3936 145.025C80.1881 145.025 79.9855 144.976 79.8022 144.883C79.7001 144.832 79.6192 144.746 79.5737 144.641V144.574L77.7817 139.776L79.3363 139.221Z" fill="#307056"/>
<path d="M22.1671 139.221L20.2272 144.337C20.223 144.38 20.223 144.424 20.2272 144.467C20.2228 144.498 20.2228 144.53 20.2272 144.561C20.2798 144.701 20.3839 144.817 20.5184 144.883C20.7009 144.976 20.9028 145.025 21.1076 145.025C21.3123 145.025 21.5142 144.976 21.6967 144.883C21.8011 144.835 21.8829 144.748 21.9251 144.641V144.574L23.744 139.776L22.1671 139.221Z" fill="#307056"/>
<path d="M51.6096 157.791V162.025C51.6005 162.099 51.5727 162.171 51.5289 162.232C51.485 162.293 51.4265 162.342 51.3588 162.374C51.1706 162.47 50.9626 162.519 50.7517 162.519C50.5408 162.519 50.3329 162.47 50.1447 162.374C50.0769 162.342 50.0184 162.293 49.9746 162.232C49.9307 162.171 49.9029 162.099 49.8938 162.025V157.791C50.1577 157.65 50.4524 157.576 50.7517 157.576C51.051 157.576 51.3457 157.65 51.6096 157.791Z" fill="#307056"/>
<path d="M78.7585 108.972C78.7585 107.847 77.7729 106.656 75.6942 105.307C71.8548 102.816 63.2801 97.8167 57.9086 94.8375C57.9066 94.8268 57.9011 94.817 57.893 94.8097C57.8849 94.8024 57.8746 94.798 57.8638 94.7972C53.7287 92.2884 49.8714 80.3403 47.0132 71.2638C46.0366 68.1681 44.8449 66.4164 43.4292 65.5921C43.0932 65.3995 41.8522 64.7185 41.5745 64.5527C38.77 62.8683 35.083 64.8887 30.4954 67.402C26.2663 69.7137 22.9646 72.675 22.3015 80.5374C21.8938 85.322 22.2791 94.4657 23.2513 101.396C24.658 112.977 26.3873 112.995 28.8916 114.93C33.2103 118.272 42.9319 122.95 47.0401 124.544C54.4679 127.465 60.5428 122.959 65.0676 120.723C69.2159 118.628 73.2209 116.26 77.0561 113.636C78.1895 112.816 78.7764 111.983 78.763 111.104C78.7495 110.759 78.7585 109.335 78.7585 108.972Z" fill="#307056"/>
<path opacity="0.25" d="M78.7585 108.972C78.7585 107.847 77.7729 106.656 75.6942 105.307C71.8548 102.816 63.2801 97.8167 57.9086 94.8375C57.9066 94.8268 57.9011 94.817 57.893 94.8097C57.8849 94.8024 57.8746 94.798 57.8638 94.7972C53.7287 92.2884 49.8714 80.3403 47.0132 71.2638C46.0366 68.1681 44.8449 66.4164 43.4292 65.5921C43.0932 65.3995 41.8522 64.7185 41.5745 64.5527C38.77 62.8683 35.083 64.8887 30.4954 67.402C26.2663 69.7137 22.9646 72.675 22.3015 80.5374C21.8938 85.322 22.2791 94.4657 23.2513 101.396C24.658 112.977 26.3873 112.995 28.8916 114.93C33.2103 118.272 42.9319 122.95 47.0401 124.544C54.4679 127.465 60.5428 122.959 65.0676 120.723C69.2159 118.628 73.2209 116.26 77.0561 113.636C78.1895 112.816 78.7764 111.983 78.763 111.104C78.7495 110.759 78.7585 109.335 78.7585 108.972Z" fill="black"/>
<path d="M43.2635 65.498C40.4814 64.0375 36.8661 66.0222 32.395 68.4727C29.5323 70.0452 27.0907 71.9044 25.6078 75.3854L23.7441 74.2923C25.227 70.8247 27.6641 68.9655 30.5179 67.402C35.1099 64.8887 38.7925 62.8683 41.6014 64.5527L43.2635 65.498Z" fill="#307056"/>
<path d="M75.7119 105.307C73.2211 103.69 73.1673 103.278 57.7919 94.7616C57.8175 94.7677 57.8418 94.7784 57.8636 94.7929C53.7331 92.2752 49.8803 80.336 47.022 71.264C44.1145 62.0441 39.2716 64.7142 32.4038 68.4774C28.1657 70.7846 24.8639 73.7504 24.1919 81.6128C23.5199 89.4752 24.9759 108.941 27.6595 111.315C30.5849 114.55 42.327 120.562 47.0175 122.408C54.4454 125.329 60.5203 120.822 65.0451 118.586C69.2013 116.487 73.2137 114.115 77.0559 111.485C79.623 109.613 79.3855 107.7 75.7119 105.307Z" fill="#307056"/>
<g opacity="0.1">
<path d="M32.3949 68.4774C39.2627 64.7142 44.1056 62.0441 47.0131 71.264C49.8714 80.3405 53.7331 92.2886 57.8637 94.7974C57.8637 94.7974 50.7718 94.7974 40.4992 100.339C29.8189 106.105 28.1882 111.745 27.6998 111.342C25.0118 109.102 23.5334 89.4707 24.201 81.6128C24.8685 73.7548 28.1657 70.7846 32.3949 68.4774Z" fill="black"/>
</g>
<path d="M80.434 146.989L33.385 119.827L111.969 74.4805L159.013 101.643L80.434 146.989Z" fill="#455A64"/>
<path d="M33.385 119.826V174.151L35.8625 175.58V138.409L77.9565 162.713V199.884L80.434 201.313V146.988L33.385 119.826Z" fill="#263238"/>
<path d="M35.8625 175.581L38.34 174.152V139.839L35.8625 138.41V175.581Z" fill="black"/>
<path d="M80.4341 201.314L82.9115 199.884V162.714L156.54 120.23V157.401L159.013 155.972V101.643L80.4341 146.989V201.314Z" fill="#37474F"/>
<path d="M156.54 157.401L154.063 155.972V121.66L156.54 120.23V157.401Z" fill="#263238"/>
<g opacity="0.2">
<path d="M76.16 136.272C73.7543 137.657 73.7543 139.906 76.16 141.294C78.5658 142.683 82.432 142.679 84.8557 141.294C87.2794 139.91 87.257 137.657 84.8557 136.272C82.4544 134.888 78.5703 134.884 76.16 136.272Z" fill="black"/>
</g>
<g opacity="0.2">
<path d="M41.4222 119.797L58.6881 129.774C58.8385 129.851 59.0051 129.891 59.1742 129.891C59.3433 129.891 59.51 129.851 59.6603 129.774L72.379 122.431C72.4375 122.411 72.4883 122.373 72.5243 122.323C72.5603 122.273 72.5797 122.213 72.5797 122.151C72.5797 122.089 72.5603 122.029 72.5243 121.979C72.4883 121.928 72.4375 121.891 72.379 121.871L55.1041 111.889C54.9531 111.814 54.7867 111.775 54.6181 111.775C54.4494 111.775 54.283 111.814 54.132 111.889L41.4133 119.237C41.1534 119.389 41.1534 119.64 41.4222 119.797Z" fill="black"/>
</g>
<g opacity="0.2">
<path d="M41.4221 121.578L58.688 131.555C58.8384 131.632 59.005 131.673 59.1741 131.673C59.3432 131.673 59.5099 131.632 59.6602 131.555L72.3789 124.212C72.6477 124.055 72.6477 123.804 72.3789 123.652L55.104 113.671C54.953 113.596 54.7866 113.557 54.618 113.557C54.4493 113.557 54.2829 113.596 54.1319 113.671L41.4221 121.013C41.3641 121.034 41.314 121.073 41.2786 121.123C41.2431 121.174 41.2241 121.234 41.2241 121.296C41.2241 121.357 41.2431 121.418 41.2786 121.468C41.314 121.519 41.3641 121.557 41.4221 121.578Z" fill="black"/>
</g>
<path d="M41.4221 120.996L58.688 130.973C58.8384 131.05 59.005 131.091 59.1741 131.091C59.3432 131.091 59.5099 131.05 59.6602 130.973L72.3968 123.648C72.6656 123.491 72.6656 123.24 72.3968 123.088L55.104 113.089C54.953 113.014 54.7866 112.975 54.618 112.975C54.4493 112.975 54.2829 113.014 54.1319 113.089L41.4221 120.431C41.3641 120.452 41.314 120.491 41.2786 120.541C41.2431 120.592 41.2241 120.652 41.2241 120.714C41.2241 120.775 41.2431 120.835 41.2786 120.886C41.314 120.936 41.3641 120.975 41.4221 120.996Z" fill="#EBEBEB"/>
<path d="M54.1408 113.088L42.0627 120.064L58.688 129.673C58.8391 129.748 59.0055 129.787 59.1741 129.787C59.3428 129.787 59.5091 129.748 59.6602 129.673L71.7562 122.698L55.104 113.088C54.9541 113.015 54.7894 112.977 54.6224 112.977C54.4555 112.977 54.2907 113.015 54.1408 113.088Z" fill="#E0E0E0"/>
<path d="M41.4221 119.24L58.688 129.217C58.8384 129.294 59.005 129.335 59.1741 129.335C59.3432 129.335 59.5099 129.294 59.6602 129.217L72.3968 121.856C72.4548 121.835 72.505 121.797 72.5404 121.746C72.5758 121.696 72.5948 121.636 72.5948 121.574C72.5948 121.512 72.5758 121.452 72.5404 121.402C72.505 121.351 72.4548 121.313 72.3968 121.292L55.104 111.333C54.9537 111.255 54.7871 111.215 54.618 111.215C54.4489 111.215 54.2822 111.255 54.1319 111.333L41.4221 118.675C41.3641 118.696 41.314 118.735 41.2786 118.785C41.2431 118.836 41.2241 118.896 41.2241 118.958C41.2241 119.019 41.2431 119.079 41.2786 119.13C41.314 119.18 41.3641 119.219 41.4221 119.24Z" fill="#FAFAFA"/>
<g opacity="0.2">
<path d="M60.9279 110.925L70.2687 116.333C70.4464 116.423 70.6428 116.47 70.8422 116.47C71.0415 116.47 71.238 116.423 71.4156 116.333L101.562 98.919C101.631 98.8958 101.692 98.8513 101.735 98.7918C101.777 98.7323 101.801 98.6609 101.801 98.5875C101.801 98.5142 101.777 98.4427 101.735 98.3832C101.692 98.3237 101.631 98.2792 101.562 98.256L92.2252 92.8486C92.0468 92.7581 91.8496 92.7109 91.6495 92.7109C91.4495 92.7109 91.2523 92.7581 91.0739 92.8486L60.9279 110.262C60.8583 110.286 60.7978 110.33 60.7549 110.39C60.712 110.449 60.689 110.521 60.689 110.594C60.689 110.667 60.712 110.739 60.7549 110.798C60.7978 110.858 60.8583 110.902 60.9279 110.925Z" fill="black"/>
</g>
<path d="M61.2505 109.657V109.447C61.2624 109.266 61.3165 109.091 61.4083 108.936C61.5001 108.78 61.6271 108.648 61.7791 108.551L89.4566 92.5571C89.6202 92.4734 89.8014 92.4297 89.9852 92.4297C90.169 92.4297 90.3502 92.4734 90.5138 92.5571L99.0886 97.5209C99.2396 97.6196 99.3659 97.7518 99.4576 97.9072C99.5493 98.0626 99.6039 98.237 99.6172 98.4169V98.6275C99.6046 98.8076 99.5502 98.9823 99.4585 99.1378C99.3667 99.2933 99.2401 99.4253 99.0886 99.5235L71.4111 115.517C71.2475 115.601 71.0663 115.645 70.8825 115.645C70.6987 115.645 70.5175 115.601 70.3538 115.517L61.7791 110.571C61.6258 110.471 61.4981 110.336 61.4063 110.177C61.3145 110.018 61.2611 109.84 61.2505 109.657Z" fill="#E0E0E0"/>
<path d="M61.7791 109.142L70.3359 114.106C70.5002 114.188 70.6811 114.23 70.8646 114.23C71.048 114.23 71.229 114.188 71.3932 114.106L99.0886 98.1127C99.1518 98.0906 99.2067 98.0495 99.2455 97.9949C99.2843 97.9403 99.3051 97.875 99.3051 97.808C99.3051 97.741 99.2843 97.6757 99.2455 97.6211C99.2067 97.5665 99.1518 97.5254 99.0886 97.5034L90.4959 92.5395C90.3323 92.4558 90.1511 92.4121 89.9673 92.4121C89.7835 92.4121 89.6023 92.4558 89.4387 92.5395L61.7612 108.533C61.6986 108.557 61.6449 108.6 61.6076 108.655C61.5704 108.711 61.5514 108.777 61.5534 108.844C61.5553 108.911 61.5781 108.976 61.6186 109.029C61.6591 109.083 61.7152 109.122 61.7791 109.142Z" fill="#FAFAFA"/>
<path d="M84.484 139.141C86.603 136.977 87.8485 131.569 85.7787 129.854H75.2642C73.1944 131.569 74.4398 136.972 76.5589 139.136L76.6171 139.199L76.6888 139.27L76.8814 139.441L76.9307 139.481L77.092 139.602C77.1816 139.665 77.2757 139.723 77.3653 139.777C78.3447 140.274 79.4276 140.533 80.5259 140.533C81.6243 140.533 82.7071 140.274 83.6866 139.777C83.7813 139.723 83.8726 139.663 83.9598 139.598L84.1122 139.486L84.1749 139.436C84.2376 139.382 84.3003 139.329 84.3586 139.27L84.4437 139.19L84.484 139.141Z" fill="#EBEBEB"/>
<path d="M76.16 129.163C73.7543 130.547 73.7543 132.796 76.16 134.185C78.5658 135.574 82.432 135.569 84.8557 134.185C87.2794 132.801 87.257 130.547 84.8557 129.163C82.4544 127.779 78.5703 127.774 76.16 129.163Z" fill="#FAFAFA"/>
<path d="M77.8715 130.145C76.411 130.992 76.411 132.358 77.8715 133.201C78.6908 133.618 79.5973 133.836 80.5169 133.836C81.4365 133.836 82.3431 133.618 83.1624 133.201C84.6228 132.358 84.6228 130.992 83.1624 130.145C82.3424 129.73 81.4361 129.514 80.5169 129.514C79.5978 129.514 78.6915 129.73 77.8715 130.145Z" fill="#EBEBEB"/>
<path d="M83.1622 131.597C82.3422 131.181 81.436 130.965 80.5168 130.965C79.5976 130.965 78.6914 131.181 77.8713 131.597C77.5107 131.785 77.2028 132.061 76.9753 132.398C77.2028 132.736 77.5107 133.012 77.8713 133.2C78.6906 133.618 79.5972 133.836 80.5168 133.836C81.4364 133.836 82.3429 133.618 83.1622 133.2C83.5242 133.014 83.8325 132.738 84.0582 132.398C83.8325 132.059 83.5242 131.783 83.1622 131.597Z" fill="#E0E0E0"/>
<path d="M78.1939 132.397C77.4457 131.638 76.8023 130.782 76.2809 129.853C75.3849 128.289 75.2326 126.197 75.6896 125.937C76.1465 125.677 78.0057 127.77 78.0057 127.77C77.8341 126.884 77.768 125.982 77.8086 125.082C77.8892 123.688 78.2252 122.425 78.624 122.17C79.0227 121.914 79.9187 123.67 80.2995 124.943C80.6803 126.215 80.9088 127.263 80.9088 127.263C81.0641 126.271 81.2932 125.292 81.5942 124.333C82.0422 123.012 82.4902 122.712 82.8083 122.846C83.1264 122.98 83.3504 123.59 83.4444 125.35C83.4791 126.19 83.4521 127.032 83.3638 127.868C83.3638 127.868 84.0224 127.147 84.7481 126.448C85.55 125.682 85.8905 125.552 86.119 125.722C86.3475 125.892 86.4102 127.066 85.1737 129.306C84.5579 130.447 83.769 131.485 82.8352 132.384C82.8352 132.384 81.1193 133.504 78.1939 132.397Z" fill="#307056"/>
<path d="M124.096 106.804L126.336 79.8164C126.359 79.3785 126.268 78.9422 126.073 78.5498C125.877 78.1573 125.584 77.822 125.22 77.5764C124.821 77.3826 124.382 77.2856 123.938 77.2934C123.495 77.3012 123.059 77.4135 122.667 77.6212L93.0989 94.6855C92.7092 94.9402 92.3788 95.2756 92.13 95.669C91.8811 96.0624 91.7196 96.5046 91.6563 96.9658L89.4163 123.949C89.3943 124.386 89.485 124.822 89.6795 125.214C89.874 125.606 90.166 125.942 90.5274 126.189C90.9277 126.382 91.3679 126.478 91.8123 126.47C92.2567 126.461 92.6928 126.348 93.0854 126.14L122.653 109.08C123.042 108.825 123.372 108.49 123.621 108.098C123.87 107.705 124.032 107.264 124.096 106.804Z" fill="#307056"/>
<path opacity="0.5" d="M124.096 106.804L126.336 79.8164C126.359 79.3785 126.268 78.9422 126.073 78.5498C125.877 78.1573 125.584 77.822 125.22 77.5764C124.821 77.3826 124.382 77.2856 123.938 77.2934C123.495 77.3012 123.059 77.4135 122.667 77.6212L93.0989 94.6855C92.7092 94.9402 92.3788 95.2756 92.13 95.669C91.8811 96.0624 91.7196 96.5046 91.6563 96.9658L89.4163 123.949C89.3943 124.386 89.485 124.822 89.6795 125.214C89.874 125.606 90.166 125.942 90.5274 126.189C90.9277 126.382 91.3679 126.478 91.8123 126.47C92.2567 126.461 92.6928 126.348 93.0854 126.14L122.653 109.08C123.042 108.825 123.372 108.49 123.621 108.098C123.87 107.705 124.032 107.264 124.096 106.804Z" fill="white"/>
<path d="M124.096 106.804L126.336 79.8164C126.359 79.3785 126.268 78.9422 126.073 78.5498C125.877 78.1573 125.584 77.822 125.22 77.5764C124.821 77.3826 124.382 77.2856 123.938 77.2934C123.495 77.3012 123.059 77.4135 122.667 77.6212L93.0989 94.6855C92.7082 94.9289 92.3799 95.2603 92.1401 95.6532L96.7321 98.3053V124.038L122.653 109.075C123.042 108.821 123.371 108.487 123.62 108.095C123.869 107.704 124.031 107.263 124.096 106.804Z" fill="#307056"/>
<path opacity="0.8" d="M124.096 106.804L126.336 79.8164C126.359 79.3785 126.268 78.9422 126.073 78.5498C125.877 78.1573 125.584 77.822 125.22 77.5764C124.821 77.3826 124.382 77.2856 123.938 77.2934C123.495 77.3012 123.059 77.4135 122.667 77.6212L93.0989 94.6855C92.7082 94.9289 92.3799 95.2603 92.1401 95.6532L96.7321 98.3053V124.038L122.653 109.075C123.042 108.821 123.371 108.487 123.62 108.095C123.869 107.704 124.031 107.263 124.096 106.804Z" fill="white"/>
<path d="M91.8937 125.387L94.1337 98.4042C94.1967 97.9429 94.3581 97.5006 94.607 97.1072C94.8559 96.7137 95.1864 96.3784 95.5763 96.1239L125.144 79.0596C125.875 78.6385 126.408 78.9789 126.34 79.8167L124.1 106.804C124.037 107.265 123.875 107.707 123.626 108.101C123.377 108.494 123.047 108.829 122.658 109.085L93.0899 126.144C92.3596 126.566 91.84 126.225 91.8937 125.387Z" fill="#307056"/>
<path opacity="0.65" d="M91.8937 125.387L94.1337 98.4042C94.1967 97.9429 94.3581 97.5006 94.607 97.1072C94.8559 96.7137 95.1864 96.3784 95.5763 96.1239L125.144 79.0596C125.875 78.6385 126.408 78.9789 126.34 79.8167L124.1 106.804C124.037 107.265 123.875 107.707 123.626 108.101C123.377 108.494 123.047 108.829 122.658 109.085L93.0899 126.144C92.3596 126.566 91.84 126.225 91.8937 125.387Z" fill="white"/>
<path d="M107.144 103.735C107.26 102.355 108.228 100.729 109.308 100.101C110.387 99.4742 111.171 100.101 111.055 101.468C110.938 102.834 109.975 104.478 108.895 105.106C107.816 105.733 107.032 105.119 107.144 103.735Z" fill="#307056"/>
<path d="M107.838 111.893L115.105 107.673L113.868 106.961L106.606 111.181L107.838 111.893Z" fill="#307056"/>
<g opacity="0.85">
<path d="M107.838 111.893L115.105 107.673L113.868 106.961L106.606 111.181L107.838 111.893Z" fill="white"/>
</g>
<path d="M118.474 120.065L109.63 125.172C109.456 125.266 109.259 125.311 109.061 125.302C108.894 125.298 108.731 125.257 108.582 125.181L104.689 122.941H104.666C104.52 122.84 104.398 122.707 104.311 122.552C104.224 122.396 104.174 122.223 104.165 122.045V121.839C104.165 121.503 104.393 121.364 104.689 121.534L107.041 122.878L107.565 123.183L107.448 122.587L106.624 111.181L107.856 111.898L115.123 107.678L118.89 119.169C118.913 119.342 118.886 119.519 118.812 119.677C118.738 119.836 118.621 119.97 118.474 120.065Z" fill="#307056"/>
<g opacity="0.5">
<path d="M118.474 120.065L109.63 125.172C109.456 125.266 109.259 125.311 109.061 125.302C108.894 125.298 108.731 125.257 108.582 125.181L104.689 122.941H104.666C104.52 122.84 104.398 122.707 104.311 122.552C104.224 122.396 104.174 122.223 104.165 122.045V121.839C104.165 121.503 104.393 121.364 104.689 121.534L107.041 122.878L107.565 123.183L107.448 122.587L106.624 111.181L107.856 111.898L115.123 107.678L118.89 119.169C118.913 119.342 118.886 119.519 118.812 119.677C118.738 119.836 118.621 119.97 118.474 120.065Z" fill="white"/>
</g>
<path d="M104.312 121.45L107.327 119.707L107.941 123.77L104.312 121.45Z" fill="#307056"/>
<g opacity="0.25">
<path d="M104.312 121.45L107.327 119.707L107.941 123.77L104.312 121.45Z" fill="black"/>
</g>
<path d="M107.838 111.896L106.606 111.18L107.435 122.554C107.502 122.881 107.314 123.002 107.027 122.846L104.675 121.502C104.38 121.331 104.151 121.47 104.151 121.806V122.012C104.16 122.19 104.21 122.363 104.297 122.519C104.384 122.674 104.506 122.808 104.653 122.908H104.675L108.568 125.148C108.717 125.224 108.881 125.265 109.048 125.269L107.838 111.896Z" fill="#307056"/>
<g opacity="0.25">
<path d="M107.838 111.896L106.606 111.18L107.435 122.554C107.502 122.881 107.314 123.002 107.027 122.846L104.675 121.502C104.38 121.331 104.151 121.47 104.151 121.806V122.012C104.16 122.19 104.21 122.363 104.297 122.519C104.384 122.674 104.506 122.808 104.653 122.908H104.675L108.568 125.148C108.717 125.224 108.881 125.265 109.048 125.269L107.838 111.896Z" fill="white"/>
</g>
<path opacity="0.2" d="M74.7488 119.357L76.1107 120.141L86.8537 113.851L88.0409 112.453L85.568 113.107L74.7488 119.357Z" fill="black"/>
<path d="M85.6665 112.152L87.9558 111.704C87.9702 111.702 87.9851 111.704 87.9983 111.71C88.0116 111.716 88.0226 111.726 88.03 111.739C88.0373 111.752 88.0405 111.766 88.0393 111.781C88.038 111.796 88.0323 111.809 88.023 111.821L86.4639 113.577L85.6665 112.152Z" fill="#FFA8A7"/>
<path d="M88.023 111.821C88.0324 111.809 88.0381 111.796 88.0393 111.781C88.0406 111.766 88.0373 111.752 88.03 111.739C88.0227 111.726 88.0116 111.716 87.9984 111.71C87.9851 111.704 87.9703 111.702 87.9558 111.704L87.5078 111.789C87.5696 111.827 87.6195 111.882 87.652 111.947C87.6844 112.012 87.6981 112.084 87.6915 112.157V112.197L88.023 111.821Z" fill="#263238"/>
<path d="M77.952 118.469L78.1402 118.362L78.3687 118.236L86.464 113.577C86.5399 113.326 86.5174 113.055 86.4013 112.82C86.3411 112.657 86.2424 112.512 86.1137 112.395C85.9849 112.279 85.83 112.196 85.6621 112.152L77.5488 116.807L77.1008 117.053C77.41 116.928 78.2208 118.321 77.952 118.469Z" fill="#307056"/>
<path d="M78.6507 118.066L79.0674 117.824C79.1883 117.756 79.1211 117.456 78.9733 117.143C78.7851 116.726 78.4088 116.323 78.2431 116.408L77.9384 116.587L77.8264 116.65C77.9922 116.565 78.3685 116.968 78.5567 117.385C78.6955 117.685 78.7672 117.976 78.6597 118.057L78.6507 118.066Z" fill="#EBEBEB"/>
<path d="M78.7539 118.003C79.0406 117.851 78.2208 116.435 77.9296 116.588L77.5129 116.83C77.7997 116.677 78.6195 118.093 78.3328 118.245L78.7539 118.003Z" fill="#307056"/>
<path d="M77.952 118.469L78.3686 118.236C78.6509 118.088 77.8669 116.717 77.5712 116.807L77.1545 117.049C77.4099 116.928 78.2208 118.321 77.952 118.469Z" fill="#EBEBEB"/>
<path opacity="0.15" d="M88.0319 111.741L87.9558 111.705L86.2937 112.601L77.7055 117.529C77.7055 117.502 77.6786 117.502 77.6697 117.529C77.9116 117.91 78.0953 118.389 77.934 118.47L78.1222 118.362L78.3506 118.237L86.4639 113.578L88.0185 111.822C88.0282 111.811 88.0346 111.797 88.0369 111.783C88.0393 111.769 88.0376 111.754 88.0319 111.741Z" fill="black"/>
<path d="M76.1824 119.477L77.9341 118.469C78.0596 118.406 77.9924 118.106 77.849 117.797C77.6608 117.376 77.2845 116.973 77.1188 117.053L75.3581 118.061C75.0087 118.263 75.3312 119.025 75.721 119.361C75.7768 119.425 75.851 119.47 75.9335 119.491C76.0159 119.512 76.1028 119.507 76.1824 119.477Z" fill="#F28F8F"/>
<path opacity="0.1" d="M76.2855 118.93C76.2414 118.74 76.1537 118.563 76.0293 118.413C75.9048 118.263 75.7471 118.144 75.5687 118.065C75.5259 118.049 75.4796 118.043 75.4341 118.049C75.3886 118.056 75.3455 118.073 75.3088 118.101C75.0445 118.343 75.3492 119.042 75.721 119.36C75.7758 119.422 75.8476 119.465 75.9273 119.486C76.0071 119.507 76.0912 119.504 76.169 119.477C76.3034 119.4 76.3527 119.199 76.2855 118.93Z" fill="black"/>
<path d="M138.459 35.7494C138.373 35.7017 138.275 35.677 138.177 35.6778H133.056L130.941 36.8963V44.2122L133.056 43.007L134.879 40.9014V46.0534L136.994 44.8349L142.531 38.8765C142.584 38.8138 142.623 38.7402 142.645 38.661C142.667 38.5817 142.671 38.4986 142.657 38.4175C142.644 38.3365 142.613 38.2594 142.566 38.1916C142.519 38.1239 142.459 38.0671 142.388 38.0253L138.459 35.7494Z" fill="#455A64"/>
<path d="M134.888 46.0535L137.003 44.835L142.54 38.8766C142.611 38.7953 142.656 38.6954 142.672 38.5888C142.687 38.4822 142.671 38.3735 142.626 38.2756C142.581 38.1778 142.509 38.0949 142.418 38.037C142.328 37.9792 142.222 37.9487 142.114 37.9492H137.003L134.888 39.1723V46.0535Z" fill="#37474F"/>
<path d="M137.016 31.9105C136.979 31.207 136.776 30.5224 136.424 29.9121C136.072 29.3019 135.581 28.7832 134.991 28.3981C134.363 28.0786 133.667 27.9121 132.962 27.9121C132.257 27.9121 131.561 28.0786 130.932 28.3981L115.517 37.2237C114.925 37.6087 114.433 38.1279 114.081 38.739C113.728 39.3502 113.525 40.0359 113.487 40.7405V57.3837C113.525 58.0876 113.729 58.7725 114.082 59.3828C114.434 59.9931 114.926 60.5115 115.517 60.8961C116.146 61.2156 116.841 61.3821 117.546 61.3821C118.251 61.3821 118.947 61.2156 119.576 60.8961L135.184 51.9361C137.007 50.8967 137.025 49.8529 137.025 48.5581L137.016 31.9105Z" fill="#37474F"/>
<path d="M113.487 57.3835C113.525 58.0873 113.729 58.7722 114.082 59.3825C114.434 59.9928 114.926 60.5113 115.517 60.8958C116.089 61.1837 116.716 61.3476 117.356 61.377C117.995 61.4063 118.634 61.3003 119.231 61.066C118.276 61.4244 117.546 60.8779 117.546 59.722V43.0788C117.571 42.3729 117.777 41.6852 118.142 41.0807L114.083 38.7422C113.719 39.3469 113.515 40.0347 113.492 40.7403L113.487 57.3835Z" fill="#263238"/>
<path d="M136.954 31.3587C136.716 30.494 135.928 30.2208 134.991 30.7628L119.571 39.566C118.97 39.937 118.478 40.4591 118.142 41.0803L114.11 38.7462C114.447 38.1245 114.939 37.6011 115.539 37.2275L130.95 28.4019C131.58 28.0837 132.276 27.918 132.982 27.918C133.688 27.918 134.384 28.0837 135.014 28.4019C135.521 28.7373 135.954 29.1725 136.288 29.6808C136.621 30.1891 136.848 30.76 136.954 31.3587Z" fill="#455A64"/>
<path d="M129.302 51.9936L125.664 54.0947V39.5347L129.302 37.4336V51.9936Z" fill="#307056"/>
<path d="M132.944 40.1855V45.0374L122.026 51.3407V46.4889L132.944 40.1855Z" fill="#307056"/>
<path d="M169.949 52.2773C173.533 52.3759 174.55 53.8095 176.709 56.8962C178.868 59.9829 186.216 71.6802 186.216 71.6802L196.623 75.6764L195.252 81.7468C195.252 81.7468 181.341 79.3903 180.432 78.8572C179.522 78.3241 172.749 67.1644 172.749 67.1644L169.949 52.2773Z" fill="#E6E6E6"/>
<path d="M167.207 52.375C170.594 51.5282 172.09 53.4188 173.219 55.511C178.349 64.919 180.432 121.367 180.432 121.367C180.432 121.367 168.99 125.932 160.5 120.574L167.207 52.375Z" fill="#F0F0F0"/>
<path d="M178.116 149.398L175.974 157.548C175.974 157.548 173.506 159.004 171.378 157.57C169.689 156.432 169.792 155.084 169.792 155.084L169.891 153.856L170.132 144.381L178.116 149.398Z" fill="#B16668"/>
<path d="M167.812 159.486C167.225 160.79 166.889 164.598 166.889 164.598C166.889 164.598 167.247 166 169.196 167.241L171.091 162.206L167.812 159.486Z" fill="#263238"/>
<path d="M169.196 167.261L174.12 166.584L175.992 162.664L170.289 164.358L169.196 167.261Z" fill="black"/>
<path d="M176.346 156.136L176.611 155.141C177.359 155.181 177.291 156.66 177.345 157.09C177.511 158.322 177.636 159.554 177.825 160.781C178.02 162.141 178.336 163.479 178.77 164.782C179.218 166.023 179.478 167.345 180.235 168.442C180.992 169.54 182.323 170.189 183.398 170.929C183.682 171.092 183.918 171.328 184.079 171.614C184.325 172.161 183.98 172.792 183.555 173.209C182.799 173.914 181.848 174.373 180.826 174.526C179.809 174.676 178.775 174.676 177.757 174.526C175.95 174.332 174.22 173.691 172.722 172.662C171.279 171.632 170.966 169.594 170.733 167.945C170.545 166.601 170.661 165.037 170.106 163.779C169.55 162.52 167.964 160.867 167.812 159.505C167.747 158.35 167.991 157.2 168.52 156.171C169.098 155.065 169.514 153.654 169.891 153.855L169.823 154.662C169.823 154.604 170.195 156.212 172.511 156.785C173.6 157.059 175.656 157.05 176.346 156.136Z" fill="#263238"/>
<path d="M172.838 164.961C172.901 166.466 172.838 167.089 172.838 167.77C172.901 169.015 173.233 169.88 173.515 171.089C173.636 171.586 173.807 172.07 174.026 172.532C174.259 173.07 174.693 173.795 174.438 174.324C174.311 174.567 174.138 174.781 173.927 174.956C172.995 175.754 171.792 176.163 170.567 176.098C169.922 176.091 169.29 175.91 168.739 175.574C167.659 174.866 167.234 173.576 166.656 172.487C166.024 171.309 166.392 170.695 166.289 169.401C166.163 167.688 165.94 165.985 165.621 164.298C167.955 161.628 169.917 164.217 172.838 164.961Z" fill="#B16668"/>
<path d="M176.413 90.4961C179.912 102.691 185.821 123.415 184.164 129.866C182.909 134.7 177.444 152.351 177.444 152.351C175.334 152.647 171.02 153.118 169.34 149.422C168.914 143.423 167.436 102.691 167.436 102.691L176.413 90.4961Z" fill="#307056"/>
<path opacity="0.4" d="M176.413 90.4961C179.912 102.691 185.821 123.415 184.164 129.866C182.909 134.7 177.444 152.351 177.444 152.351C175.334 152.647 171.02 153.118 169.34 149.422C168.914 143.423 167.436 102.691 167.436 102.691L176.413 90.4961Z" fill="white"/>
<path opacity="0.25" d="M167.453 102.668C169.674 100.569 171.739 98.3113 173.631 95.9121C173.631 95.9121 173.183 98.8017 169.201 102.784C169.201 102.784 175.876 128.495 175.835 132.599C175.795 136.703 173.595 151.415 173.595 151.415L167.453 102.668Z" fill="black"/>
<path d="M176.413 90.4952C173.56 96.4132 172.44 98.7787 167.453 102.69C167.453 102.69 173.551 128.029 173.82 132.948C174.268 141.124 173.215 159.424 172.838 164.984C171.893 166.221 167.288 166.431 165.836 165.378C165.173 162.807 162.947 153.757 161.903 145.639C161.132 139.641 162.118 134.274 162.243 132.701C159.013 124.463 151.76 112.438 149.108 103.823C148.673 102.332 148.398 100.799 148.288 99.2491C147.697 93.788 149.932 89.6171 151.245 86.7051L176.413 90.4952Z" fill="#307056"/>
<g opacity="0.5">
<path d="M176.413 90.4952C173.56 96.4132 172.44 98.7787 167.453 102.69C167.453 102.69 173.551 128.029 173.82 132.948C174.268 141.124 173.215 159.424 172.838 164.984C171.893 166.221 167.288 166.431 165.836 165.378C165.173 162.807 162.947 153.757 161.903 145.639C161.132 139.641 162.118 134.274 162.243 132.701C159.013 124.463 151.76 112.438 149.108 103.823C148.673 102.332 148.398 100.799 148.288 99.2491C147.697 93.788 149.932 89.6171 151.245 86.7051L176.413 90.4952Z" fill="white"/>
</g>
<path d="M165.128 173.531C164.774 174.911 165.097 178.715 165.097 178.715C165.097 178.715 165.684 180.032 167.812 180.923L168.82 175.646L165.128 173.531Z" fill="#263238"/>
<path d="M167.812 180.925L172.543 179.415L173.712 175.244L168.394 177.878L167.812 180.925Z" fill="black"/>
<path d="M172.82 168.761L172.856 167.771C173.492 168.089 174.859 173.254 176.732 176.811C178.443 180.055 181.875 181.883 182.981 183.298C184.46 185.193 181.53 187.59 176.866 186.551C174.554 186.031 171.042 184.517 170.119 182.944C169.196 181.372 168.883 178.496 168.116 177.34C167.35 176.184 165.509 174.844 165.128 173.532C164.831 172.343 164.845 171.098 165.169 169.916C165.545 168.729 165.527 167.511 166.123 167.412L166.212 168.344C166.522 168.985 167.731 169.719 170.088 169.872C171.212 169.939 172.301 169.791 172.82 168.761Z" fill="#37474F"/>
<path d="M164.568 42.1732L162.216 50.1252C155.675 50.1252 151.635 43.7547 151.635 37.2139C151.635 30.6462 155.819 25.1582 162.387 25.1582H164.519C171.087 25.1582 176.413 29.5172 176.413 36.0894C176.413 40.3678 171.109 42.1732 164.568 42.1732Z" fill="#263238"/>
<path d="M177.641 30.0153C178.143 29.1953 178.385 28.2426 178.335 27.2825C178.304 26.8021 178.164 26.3351 177.926 25.9167C177.688 25.4984 177.357 25.1397 176.96 24.8678C175.737 24.0882 174.044 24.4556 172.928 25.3561C172.837 24.5006 172.417 23.714 171.757 23.1629C171.096 22.6119 170.247 22.3396 169.389 22.4038C168.3 22.4889 167.333 23.0937 166.392 23.6402C164.79 24.4522 163.061 24.984 161.28 25.2127L163.283 25.9833C163.01 26.4024 162.837 26.8781 162.777 27.3742C162.716 27.8703 162.77 28.3737 162.933 28.846C163.019 29.0397 163.124 29.2243 163.247 29.397C164.576 31.3856 166.412 32.9832 168.565 34.0251C170.719 35.0671 173.111 35.5155 175.495 35.3241C176.164 35.3097 176.818 35.1246 177.395 34.7865C177.731 34.5471 178.016 34.2423 178.232 33.8905C178.651 33.279 178.857 32.5472 178.819 31.8073C178.793 31.4326 178.671 31.0711 178.464 30.7572C178.258 30.4434 177.975 30.1879 177.641 30.0153Z" fill="#263238"/>
<path d="M159.461 53.3105L155.174 53.7585C152.329 54.4529 151.043 55.7073 150.752 58.2385C150.618 59.4123 149.905 62.5393 150.9 66.4593C151.796 70.0075 154.206 78.6942 154.206 78.6942C154.206 78.6942 151.093 86.5029 149.632 90.4945C159.748 97.0936 172.234 94.4862 176.427 90.4945C176.073 86.7224 174.738 83.2056 174.438 79.8411C174.438 79.8411 174.653 74.5816 175.07 72.3013C178.273 68.8113 177.861 65.4693 176.414 62.7768C173.761 57.7995 169.761 53.4315 168.47 53.436L159.461 53.3105Z" fill="#455A64"/>
<path d="M167.149 50.4844C168.43 50.798 169.429 51.3177 169.949 52.2764C170.469 53.2351 174.523 59.6191 174.523 59.6191C174.523 59.6191 171.253 55.3138 168.789 54.0101C168.286 53.7165 167.727 53.5304 167.149 53.4636V50.4844Z" fill="#E0E0E0"/>
<path d="M159.461 53.3105C159.461 53.3105 163.941 62.6513 164.739 68.9547C165.536 75.2581 163.843 96.7621 163.843 103.585C163.843 111.81 163.869 125.385 163.869 125.385C163.869 125.385 158.758 125.385 155.245 124.381C152.678 123.651 149.637 122.338 147.795 120.139C147.795 120.139 147.293 103.303 148.351 95.2837C149.35 87.6677 153.404 78.2865 153.404 78.2865L148.207 58.476C148.207 58.476 148.449 55.0712 151.653 54.1169C154.685 53.203 159.461 53.3105 159.461 53.3105Z" fill="#FAFAFA"/>
<path d="M155.245 57.3887L149.941 65.1525L153.386 78.2789C153.386 78.2789 150.188 85.0303 149.009 91.5666C152.204 82.5304 155.089 79.82 155.089 79.82L153.216 72.1771C153.216 72.1771 153.875 69.7714 154.793 65.6677C155.711 61.564 155.559 59.1852 155.245 57.3887Z" fill="#EBEBEB"/>
<path d="M158.144 64.7077C158.144 64.318 158.108 63.4757 158.041 62.4095C157.709 57.2082 157.557 52.5042 159.313 52.1055L159.47 52.8223C158.184 53.1 158.61 59.8156 158.771 62.3423C158.843 63.4309 158.897 64.2866 158.879 64.7167L158.144 64.7077Z" fill="#307056"/>
<path d="M159.461 50.4844C159.134 50.4861 158.814 50.5772 158.535 50.7478C158.257 50.9184 158.03 51.1619 157.88 51.4521C157.459 52.1689 156.571 53.374 156.571 53.374C156.571 53.374 156.54 58.1497 157.019 59.3906C157.432 60.4658 162.494 64.4485 162.494 64.4485C162.494 64.4485 162.001 68.6642 161.961 70.1381C161.921 71.6121 164.519 76.9567 164.837 79.8194C164.837 79.8194 165.375 72.8665 164.954 69.6364C164.214 64.014 160.707 55.605 159.461 53.3023V50.4844Z" fill="#EBEBEB"/>
<path d="M157.082 82.1049H157.019V81.5942C157.628 81.5433 158.21 81.3263 158.704 80.967C158.177 80.6163 157.706 80.189 157.306 79.6991C156.477 78.6284 154.667 70.99 155.227 69.2114C155.675 67.7196 157.158 64.4268 158.466 64.373H158.498C159.802 64.373 161.513 67.4822 162.104 68.9158C162.812 70.645 161.656 78.4089 160.922 79.5423C160.566 80.0663 160.132 80.5331 159.636 80.9266C160.155 81.2475 160.755 81.4152 161.365 81.4105L161.428 81.9167C160.633 81.9302 159.852 81.7038 159.188 81.2671C158.579 81.7391 157.849 82.0295 157.082 82.1049ZM158.52 64.8793C157.754 64.9106 156.379 67.3522 155.752 69.3593C155.236 70.9945 156.979 78.3865 157.745 79.381C158.152 79.8733 158.635 80.2982 159.174 80.6399C159.694 80.2536 160.148 79.7862 160.518 79.2556C161.199 78.2028 162.31 70.6898 161.652 69.1039C160.854 67.1999 159.291 64.8793 158.52 64.8793Z" fill="#455A64"/>
<path d="M162.176 81.6241C162.182 81.7728 162.144 81.92 162.066 82.047C161.989 82.174 161.875 82.2751 161.74 82.3377C161.605 82.4003 161.455 82.4214 161.308 82.3984C161.161 82.3755 161.024 82.3095 160.914 82.2087C160.805 82.108 160.728 81.977 160.693 81.8324C160.658 81.6878 160.666 81.536 160.717 81.3963C160.768 81.2565 160.86 81.1351 160.98 81.0473C161.1 80.9594 161.243 80.9092 161.392 80.9029C161.591 80.8956 161.786 80.9672 161.932 81.1023C162.079 81.2373 162.167 81.4249 162.176 81.6241Z" fill="#263238"/>
<path d="M157.781 81.8138C157.787 81.9624 157.749 82.1096 157.672 82.2366C157.594 82.3636 157.481 82.4648 157.346 82.5273C157.211 82.5899 157.06 82.611 156.913 82.5881C156.766 82.5651 156.629 82.4991 156.52 82.3983C156.41 82.2976 156.333 82.1666 156.298 82.022C156.263 81.8774 156.271 81.7257 156.322 81.5859C156.374 81.4462 156.465 81.3247 156.585 81.2369C156.705 81.1491 156.849 81.0988 156.997 81.0925C157.096 81.0883 157.195 81.1036 157.288 81.1376C157.381 81.1716 157.466 81.2236 157.539 81.2905C157.612 81.3575 157.671 81.4382 157.712 81.528C157.754 81.6178 157.777 81.7149 157.781 81.8138Z" fill="#263238"/>
<path d="M162.248 72.2788L161.8 72.2475C161.778 72.2464 161.756 72.2408 161.736 72.2311C161.717 72.2213 161.699 72.2076 161.685 72.1908C161.67 72.174 161.66 72.1545 161.653 72.1334C161.647 72.1123 161.645 72.0902 161.647 72.0683C161.733 70.6347 161.688 69.5774 161.513 69.1563C160.751 67.3015 159.183 64.9809 158.498 65.0078C157.813 65.0347 156.442 67.4852 155.841 69.3982C155.707 69.8462 155.747 70.89 155.958 72.3102C155.964 72.3541 155.953 72.3987 155.928 72.4347C155.902 72.4707 155.863 72.4951 155.819 72.5028L155.371 72.57C155.349 72.5732 155.326 72.5718 155.304 72.5661C155.282 72.5603 155.262 72.5503 155.244 72.5365C155.226 72.5227 155.211 72.5055 155.199 72.4859C155.188 72.4663 155.181 72.4446 155.178 72.4222C154.941 70.8273 154.914 69.7342 155.089 69.1652C155.411 68.1438 156.921 64.3044 158.444 64.2372C159.967 64.17 161.8 67.8705 162.207 68.8651C162.431 69.4116 162.499 70.5047 162.396 72.1175C162.394 72.1575 162.378 72.1956 162.351 72.2251C162.324 72.2546 162.287 72.2736 162.248 72.2788Z" fill="#307056"/>
<path d="M144.588 111.327C145.367 112.057 145.793 113.038 146.595 114.49C147.397 115.941 151.352 116.08 151.666 111.999C151.903 108.926 150.828 107.886 148.673 105.494C146.411 102.976 145.537 102.564 145.64 100.23C145.699 99.0788 147.432 82.4132 147.432 82.4132L153.135 66.7018C153.135 66.7018 155.196 59.3591 154.161 54.2429C154.161 54.2429 150.465 53.9428 147.854 56.5501C144.803 59.5965 141.349 74.6583 140.587 77.7002C139.49 81.5547 139.01 85.5587 139.167 89.5633C139.346 94.4509 139.364 104.665 140.014 106.919C140.663 109.172 142.487 109.36 144.588 111.327Z" fill="#B16668"/>
<path d="M154.417 53.5673C154.417 53.5673 150.488 53.3209 148.189 55.2025C145.891 57.0841 144.462 62.3436 142.773 67.5986C141.084 72.8537 139.579 77.9743 139.023 81.6569C138.575 84.7391 139.471 101.01 139.471 101.01C139.471 101.01 142.088 101.96 145.64 100.231L147.84 82.4319L154.426 64.5657C155.64 60.9995 155.636 57.1314 154.417 53.5673Z" fill="#F0F0F0"/>
<path d="M169.725 31.1621C172.718 31.4712 175.217 34.652 175.052 41.8693C174.908 47.989 172.924 49.4853 171.916 49.9333C170.908 50.3813 168.999 50.4396 167.135 50.1259V53.4635C167.135 53.4635 169.286 58.2034 168.372 59.8968C163.269 57.7912 159.461 53.3112 159.461 53.3112V45.749C159.461 45.749 158.202 47.2408 156.142 45.8744C154.081 44.508 154 41.1167 155.201 39.8981C156.401 38.6795 158.982 39.0693 159.461 40.7493C159.461 40.7493 161.253 40.7045 164.555 38.3525C167.067 36.6352 168.897 34.0904 169.725 31.1621Z" fill="#B16668"/>
<path d="M166.741 39.5227C166.751 39.6324 166.739 39.743 166.705 39.8479C166.671 39.9528 166.617 40.0499 166.545 40.1334C166.473 40.2169 166.385 40.2852 166.287 40.3342C166.188 40.3832 166.081 40.4119 165.971 40.4187C165.803 40.4335 165.634 40.398 165.487 40.3166C165.34 40.2353 165.22 40.1118 165.143 39.962C165.066 39.8122 165.035 39.6428 165.055 39.4756C165.075 39.3083 165.144 39.1508 165.254 39.0231C165.364 38.8955 165.509 38.8034 165.672 38.7588C165.834 38.7142 166.006 38.719 166.166 38.7726C166.325 38.8262 166.465 38.9262 166.568 39.0598C166.67 39.1934 166.731 39.3546 166.741 39.5227Z" fill="#263238"/>
<path d="M167.601 45.248L170.029 46.0231C169.986 46.1854 169.91 46.3373 169.806 46.4695C169.702 46.6018 169.573 46.7118 169.426 46.793C169.278 46.8741 169.116 46.9247 168.949 46.9418C168.782 46.9588 168.613 46.942 168.452 46.8922C168.127 46.7795 167.857 46.546 167.699 46.2401C167.54 45.9341 167.505 45.579 167.601 45.248Z" fill="#9A4A4D"/>
<path d="M173.958 37.6305L172.31 36.4881C172.379 36.3771 172.47 36.2814 172.578 36.2068C172.686 36.1322 172.807 36.0803 172.936 36.0543C173.064 36.0283 173.196 36.0288 173.324 36.0556C173.452 36.0824 173.574 36.1351 173.681 36.2104C173.902 36.3653 174.054 36.5997 174.106 36.8645C174.157 37.1293 174.105 37.4038 173.958 37.6305Z" fill="#263238"/>
<path d="M173.376 39.3654C173.378 39.5253 173.332 39.6821 173.245 39.8164C173.158 39.9506 173.034 40.0563 172.888 40.1204C172.741 40.1845 172.579 40.2041 172.421 40.1768C172.264 40.1495 172.118 40.0764 172.002 39.9668C171.885 39.8571 171.804 39.7157 171.767 39.56C171.73 39.4044 171.74 39.2414 171.796 39.0914C171.851 38.9414 171.949 38.811 172.078 38.7163C172.207 38.6216 172.361 38.567 172.52 38.559C172.63 38.5555 172.738 38.5735 172.841 38.6122C172.943 38.6508 173.036 38.7093 173.116 38.7842C173.195 38.8592 173.259 38.9491 173.304 39.0489C173.349 39.1486 173.373 39.2562 173.376 39.3654Z" fill="#263238"/>
<path d="M169.241 38.8984L169.371 43.7996L171.951 43.0021L169.241 38.8984Z" fill="#9A4A4D"/>
<path d="M167.149 50.1251C165.178 49.8697 161.132 48.3734 160.5 46.7695C160.753 47.58 161.249 48.2932 161.921 48.8124C163.13 49.8518 167.149 51.0166 167.149 51.0166V50.1251Z" fill="#9A4A4D"/>
<path d="M200.054 69.6543L180.575 78.9234L175.217 102.103L175.652 102.564L194.168 93.2505L200.489 70.1157L200.054 69.6543Z" fill="#307056"/>
<path opacity="0.35" d="M181.014 79.3898L175.652 102.565L175.217 102.103L180.575 78.9238L181.014 79.3898Z" fill="black"/>
<path opacity="0.25" d="M200.489 70.1152L181.014 79.3888L175.652 102.564L194.168 93.25L200.489 70.1152Z" fill="black"/>
<g opacity="0.2">
<path d="M191.296 88.5373C191.475 88.9853 192.967 89.9978 195.131 89.8186L195.494 88.4746L191.296 88.5373Z" fill="black"/>
</g>
<g opacity="0.1">
<path d="M194.62 74.8648L194.781 74.0898C194.871 73.6418 193.729 73.8837 192.228 74.5916L189.361 75.9356C187.86 76.6434 186.574 77.5663 186.485 77.9964L186.323 78.7714L194.62 74.8648Z" fill="black"/>
</g>
<path d="M195.803 71.2316C195.861 70.9628 195.395 70.9942 194.768 71.3033L193.635 71.8588C193.635 71.8588 193.971 70.1788 191.448 71.2764C188.926 72.374 188.38 74.3139 188.38 74.3139L187.166 74.9187C186.494 75.2502 185.889 75.743 185.822 76.0118L185.678 76.5046L195.709 71.7334C195.709 71.7334 195.749 71.5004 195.803 71.2316Z" fill="#37474F"/>
<path d="M194.737 72.8405C193.818 73.2571 193.433 73.4632 193.299 74.1263C193.142 74.8789 193.079 75.4255 193.079 75.4255L188.635 77.54C188.635 77.54 188.85 76.5813 188.917 76.196C188.984 75.8107 188.836 75.6405 188.129 75.981L187.851 75.2015L195.019 71.8594L194.737 72.8405Z" fill="#37474F"/>
<path d="M194.88 74.8783C194.88 74.8783 194.952 74.5289 195.041 74.1033C195.131 73.6777 193.988 73.8972 192.488 74.6051L189.616 75.9491C188.12 76.6569 186.834 77.5798 186.744 78.0099L186.583 78.7849L194.88 74.8783Z" fill="#37474F"/>
<path d="M198.321 78.0446C198.321 78.0446 197.631 80.5893 197.452 81.2299C197.272 81.8705 194.083 83.3445 192.483 83.5461C189.428 83.9269 189.083 84.5899 189.818 86.7582C190.494 88.7563 192.483 89.5134 195.243 89.1864C196.533 89.0341 198.321 87.8872 199.024 85.8846C199.92 83.331 199.436 80.5982 199.79 79.1064C200.144 77.6145 199.1 77.1576 198.321 78.0446Z" fill="#B16668"/>
<path d="M22.8301 51.8295L23.7395 52.3537L46.4755 39.2273L45.5661 38.7031L22.8301 51.8295Z" fill="#455A64"/>
<path d="M45.5661 38.7022L23.7395 51.3045V32.3854L45.5661 19.7832V38.7022Z" fill="#307056"/>
<g opacity="0.8">
<path d="M45.5661 38.7022L23.7395 51.3045V32.3854L45.5661 19.7832V38.7022Z" fill="white"/>
</g>
<path d="M47.3849 17.6816L22.8479 31.8564V53.9293L47.4028 39.7501L47.3849 17.6816ZM46.4889 39.226L23.7439 52.3524V32.385L46.4754 19.2631L46.4889 39.226Z" fill="#37474F"/>
<path d="M46.4756 39.2257L45.5662 38.7016V19.7825L46.4756 19.2539V39.2257Z" fill="#263238"/>
<path d="M47.385 17.6824L46.4755 17.1582L21.9207 31.3329L22.8301 31.8571L47.385 17.6824Z" fill="#455A64"/>
<path d="M21.9207 31.332L22.8301 31.8562V53.9291L21.9207 53.405V31.332Z" fill="#263238"/>
<path d="M41.2831 35.5217C42.1343 35.0289 42.8198 35.4276 42.8198 36.4177C42.7912 36.9503 42.6372 37.4686 42.3701 37.9303C42.1031 38.392 41.7306 38.784 41.2831 39.0743C40.4364 39.5626 39.751 39.1684 39.751 38.1783C39.7797 37.6463 39.9334 37.1285 40.1996 36.6669C40.4658 36.2053 40.837 35.813 41.2831 35.5217Z" fill="#307056"/>
<path opacity="0.2" d="M28.8781 31.5217L40.4365 24.8465C40.759 24.6583 41.0189 24.8106 41.0189 25.178V25.2138C41.0083 25.4159 40.95 25.6126 40.8487 25.7878C40.7475 25.963 40.6062 26.1118 40.4365 26.2218L28.8781 32.906C28.56 33.0942 28.2957 32.9418 28.2957 32.57V32.5297C28.308 32.328 28.367 32.132 28.4681 31.9571C28.5692 31.7821 28.7095 31.6331 28.8781 31.5217Z" fill="black"/>
<g opacity="0.2">
<path d="M27.0503 36.7813L42.2823 28.0005C42.6049 27.8123 42.8647 27.8974 42.8647 28.1886C42.8415 28.3675 42.7767 28.5385 42.6756 28.6878C42.5744 28.8372 42.4398 28.9608 42.2823 29.0488L27.0503 37.8386C26.7322 38.0267 26.4724 37.9416 26.4769 37.6459C26.5001 37.4676 26.5639 37.297 26.6633 37.1471C26.7627 36.9972 26.8951 36.8721 27.0503 36.7813Z" fill="black"/>
<path d="M27.0503 38.8823L42.2823 30.097C42.6049 29.9133 42.8647 29.9984 42.8647 30.2852C42.8411 30.4645 42.7763 30.6359 42.6752 30.786C42.5741 30.936 42.4396 31.0606 42.2823 31.1498L27.0503 39.9396C26.7322 40.1232 26.4724 40.0381 26.4769 39.7469C26.4995 39.5684 26.563 39.3975 26.6624 39.2475C26.7619 39.0975 26.8946 38.9726 27.0503 38.8823Z" fill="black"/>
<path d="M27.0503 40.9797L42.2823 32.1945C42.6049 32.0108 42.8647 32.0959 42.8647 32.3871C42.8415 32.566 42.7767 32.7369 42.6756 32.8863C42.5744 33.0356 42.4398 33.1593 42.2823 33.2473L27.0503 42.037C26.7322 42.2252 26.4724 42.1356 26.4769 41.8444C26.5001 41.666 26.5639 41.4954 26.6633 41.3455C26.7627 41.1957 26.8951 41.0705 27.0503 40.9797Z" fill="black"/>
</g>
<path opacity="0.3" d="M38.5548 40.0113C38.4371 40.0735 38.3071 40.1087 38.174 40.1144C37.847 40.1144 37.8784 39.7829 37.8873 39.5544C37.8873 39.4513 37.7484 39.2901 37.6768 39.4289C37.4796 39.7829 37.2288 40.1144 37.0137 40.4593C36.8838 40.6699 36.6374 41.1493 36.3238 41.0821C36.1984 41.0552 36.1536 40.9163 36.1536 40.7416C36.3118 40.4514 36.3818 40.1213 36.3552 39.7918C36.3552 39.6933 36.176 39.5723 36.1267 39.7067C36.0132 39.9928 35.9467 40.2954 35.9296 40.6027C35.7841 40.8583 35.6194 41.1024 35.4368 41.3329C35.3292 41.4718 35.2396 41.6286 35.1232 41.7809C35.0918 41.8123 35.038 41.8929 34.9932 41.8974C34.9484 41.9019 34.8992 41.8526 34.8857 41.7809C34.8802 41.6756 34.897 41.5702 34.935 41.4718C34.935 41.4718 34.935 41.4718 34.935 41.4449C34.935 41.3419 34.8006 41.1896 34.7468 41.3195C34.546 41.868 34.2418 42.3729 33.8508 42.8069L33.7926 42.8561C33.7926 42.7934 33.7926 42.7352 33.7926 42.6725C33.787 42.5325 33.7629 42.3939 33.7209 42.2603C33.694 42.1931 33.5776 42.0901 33.5148 42.1797C33.2367 42.6858 32.8966 43.1553 32.5024 43.5774C32.436 43.6319 32.3656 43.6813 32.2918 43.7253C32.2201 43.6894 32.3276 43.3176 32.3456 43.2773C32.3859 43.1115 32.4396 42.9502 32.4934 42.7889C32.5492 42.6597 32.5898 42.5244 32.6144 42.3857C32.6144 42.2603 32.4217 42.0677 32.3814 42.2379C32.3814 42.3051 32.3052 42.4709 32.2425 42.6859C31.9825 43.1668 31.6875 43.628 31.36 44.0657C31.0659 44.5398 30.6577 44.9325 30.1728 45.2081C30.0384 45.2798 29.783 45.3873 29.6352 45.2798C29.4873 45.1723 29.5008 44.9886 29.4963 44.8318C29.4904 44.4756 29.5387 44.1206 29.6396 43.779C30.117 43.5264 30.5597 43.2132 30.9568 42.8472C31.3465 42.5355 31.6838 42.1634 31.9558 41.7451C32.0902 41.4987 32.1708 41.1 31.8438 40.9611C31.6153 40.8625 31.3241 41.0238 31.1315 41.1313C30.867 41.288 30.627 41.4827 30.4192 41.7093C29.9979 42.1879 29.6914 42.7563 29.5232 43.3713C29.4963 43.4654 29.456 43.5909 29.4201 43.7297C28.904 43.9942 28.3188 44.0928 27.7446 44.012C27.7132 44.012 27.6998 44.0792 27.7446 44.0837C28.2943 44.2016 28.8669 44.1468 29.3843 43.9269C29.2364 44.563 29.1558 45.4053 29.7472 45.571C30.3385 45.7368 31.0553 44.9931 31.3734 44.563C31.6171 44.2417 31.83 43.8982 32.0096 43.5371C32.026 43.5107 32.0439 43.4852 32.0633 43.4609C32.0633 43.7566 32.1216 43.9717 32.4128 43.9089C32.704 43.8462 32.9683 43.4609 33.1296 43.2235C33.2908 42.9861 33.4208 42.7755 33.5776 42.5649C33.6044 42.8337 33.6492 43.1339 33.9046 43.0846C34.16 43.0353 34.3526 42.5918 34.487 42.4126C34.6214 42.2334 34.6886 42.099 34.7737 41.9377C34.7916 41.9671 34.811 41.9955 34.832 42.0229C35.0425 42.2469 35.28 42.0229 35.4323 41.8257C35.6249 41.5749 35.84 41.3061 36.0236 41.0193C36.0673 41.1425 36.1573 41.2438 36.2745 41.3016C36.6016 41.4539 36.9062 41.1851 37.0944 40.9477C37.323 40.6356 37.5267 40.306 37.7036 39.9621C37.717 40.0271 37.7438 40.0886 37.7824 40.1426C37.821 40.1966 37.8705 40.2419 37.9276 40.2757C38.0481 40.3365 38.1827 40.364 38.3174 40.3553C38.4521 40.3466 38.582 40.3021 38.6937 40.2264C38.7564 40.1771 38.6624 39.9576 38.5548 40.0113ZM31.4361 41.2837C31.584 41.2075 31.8841 41.0776 31.9155 41.3329C31.895 41.5 31.8229 41.6566 31.7094 41.7809C31.4503 42.1299 31.1494 42.4459 30.8134 42.7217C30.4712 43.0372 30.1008 43.3206 29.7068 43.5685C29.8224 43.0891 30.0357 42.6388 30.3332 42.2457C30.6308 41.8526 31.0062 41.5251 31.4361 41.2837Z" fill="black"/>
<path d="M58.6702 51.8295L59.5796 52.3537L82.3156 39.2273L81.4062 38.7031L58.6702 51.8295Z" fill="#455A64"/>
<path d="M81.4062 38.7022L59.5796 51.3045V32.3854L81.4062 19.7832V38.7022Z" fill="#307056"/>
<g opacity="0.8">
<path d="M81.4062 38.7022L59.5796 51.3045V32.3854L81.4062 19.7832V38.7022Z" fill="white"/>
</g>
<path d="M83.2249 17.6816L58.688 31.8564V53.9293L83.2429 39.7501L83.2249 17.6816ZM82.3289 39.226L59.584 52.3524V32.385L82.3155 19.2631L82.3289 39.226Z" fill="#37474F"/>
<path d="M82.3157 39.2257L81.4062 38.7016V19.7825L82.3157 19.2539V39.2257Z" fill="#263238"/>
<path d="M83.2251 17.6824L82.3156 17.1582L57.7607 31.3329L58.6702 31.8571L83.2251 17.6824Z" fill="#455A64"/>
<path d="M57.7607 31.332L58.6702 31.8562V53.9291L57.7607 53.405V31.332Z" fill="#263238"/>
<path d="M77.1277 35.5217C77.9744 35.0289 78.6599 35.4276 78.6599 36.4177C78.6311 36.9497 78.4774 37.4675 78.2112 37.9291C77.945 38.3906 77.5738 38.783 77.1277 39.0743C76.2765 39.5626 75.5911 39.1684 75.5911 38.1783C75.6196 37.6457 75.7737 37.1274 76.0407 36.6657C76.3078 36.204 76.6803 35.812 77.1277 35.5217Z" fill="#307056"/>
<path opacity="0.2" d="M64.7183 31.5217L76.2812 24.8465C76.5993 24.6583 76.8591 24.8106 76.8591 25.178V25.2138C76.8487 25.4154 76.7909 25.6117 76.6905 25.7868C76.5901 25.962 76.4499 26.111 76.2812 26.2218L64.7183 32.906C64.4002 33.0942 64.1404 32.9418 64.1404 32.57V32.5297C64.1519 32.3283 64.2101 32.1324 64.3104 31.9575C64.4107 31.7825 64.5503 31.6333 64.7183 31.5217Z" fill="black"/>
<g opacity="0.2">
<path d="M62.8904 36.7813L78.1224 28.0005C78.445 27.8123 78.7048 27.8974 78.7048 28.1886C78.6816 28.3675 78.6168 28.5385 78.5157 28.6878C78.4145 28.8372 78.2799 28.9608 78.1224 29.0488L62.8904 37.8386C62.5723 38.0267 62.3125 37.9416 62.317 37.6459C62.3402 37.4676 62.404 37.297 62.5034 37.1471C62.6028 36.9972 62.7352 36.8721 62.8904 36.7813Z" fill="black"/>
<path d="M62.8904 38.8823L78.1224 30.097C78.445 29.9133 78.7048 29.9984 78.7048 30.2852C78.6812 30.4645 78.6163 30.6359 78.5153 30.786C78.4142 30.936 78.2797 31.0606 78.1224 31.1498L62.8904 39.9396C62.5723 40.1232 62.3125 40.0381 62.317 39.7469C62.3396 39.5684 62.4031 39.3975 62.5025 39.2475C62.602 39.0975 62.7347 38.9726 62.8904 38.8823Z" fill="black"/>
<path d="M62.8904 40.9797L78.1224 32.1945C78.445 32.0108 78.7048 32.0959 78.7048 32.3871C78.6816 32.566 78.6168 32.7369 78.5157 32.8863C78.4145 33.0356 78.2799 33.1593 78.1224 33.2473L62.8904 42.037C62.5723 42.2252 62.3125 42.1356 62.317 41.8444C62.3402 41.666 62.404 41.4954 62.5034 41.3455C62.6028 41.1957 62.7352 41.0705 62.8904 40.9797Z" fill="black"/>
</g>
<path opacity="0.3" d="M74.3949 40.0113C74.2776 40.0746 74.1473 40.1098 74.0141 40.1144C73.6916 40.1144 73.7185 39.7829 73.7274 39.5544C73.7274 39.4513 73.5885 39.2901 73.5169 39.4289C73.3197 39.7829 73.0689 40.1144 72.8538 40.4593C72.7284 40.6699 72.4775 41.1493 72.1684 41.0821C72.0385 41.0552 71.9937 40.9163 71.9937 40.7416C72.1519 40.4514 72.2219 40.1213 72.1953 39.7918C72.1953 39.6933 72.0205 39.5723 71.9668 39.7067C71.8533 39.9928 71.7868 40.2954 71.7697 40.6027C71.6242 40.8583 71.4595 41.1024 71.2769 41.3329C71.1738 41.4718 71.0797 41.6286 70.9633 41.7809C70.9364 41.8123 70.8781 41.8929 70.8333 41.8974C70.7885 41.9019 70.7393 41.8526 70.7258 41.7809C70.7203 41.6756 70.7371 41.5702 70.7751 41.4718C70.777 41.463 70.777 41.4538 70.7751 41.4449C70.7751 41.3419 70.6407 41.1896 70.5869 41.3195C70.3861 41.868 70.0819 42.3729 69.6909 42.8069L69.6327 42.8561C69.6327 42.7934 69.6327 42.7352 69.6327 42.6725C69.6271 42.5325 69.603 42.3939 69.561 42.2603C69.5341 42.1931 69.4177 42.0901 69.3549 42.1797C69.0783 42.6868 68.7381 43.1565 68.3425 43.5774C68.2769 43.6329 68.2064 43.6824 68.1319 43.7253C68.0647 43.6894 68.1722 43.3176 68.1857 43.2773C68.226 43.1115 68.2797 42.9502 68.3335 42.7889C68.3893 42.6597 68.4299 42.5244 68.4545 42.3857C68.4545 42.2603 68.2618 42.0677 68.2215 42.2379C68.2215 42.3051 68.1453 42.4709 68.0826 42.6859C67.8242 43.1678 67.5292 43.6291 67.2001 44.0657C66.906 44.5398 66.4978 44.9325 66.0129 45.2081C65.8785 45.2798 65.6231 45.3873 65.4753 45.2798C65.3274 45.1723 65.3453 44.9886 65.3364 44.8318C65.335 44.4759 65.3832 44.1216 65.4797 43.779C65.9571 43.5264 66.3998 43.2132 66.7969 42.8472C67.1877 42.5367 67.5252 42.1645 67.7959 41.7451C67.9303 41.4987 68.0109 41.1 67.6839 40.9611C67.4554 40.8625 67.1642 41.0238 66.9716 41.1313C66.7035 41.2814 66.459 41.4701 66.2458 41.6913C65.8245 42.1699 65.5181 42.7384 65.3498 43.3534C65.3229 43.4475 65.2826 43.5729 65.2468 43.7118C64.7307 43.9763 64.1455 44.0749 63.5713 43.9941C63.5399 43.9941 63.5265 44.0613 63.5713 44.0657C64.1209 44.1836 64.6936 44.1289 65.2109 43.9089C65.0631 44.5451 64.9825 45.3873 65.5738 45.5531C66.1652 45.7189 66.882 44.9752 67.2001 44.5451C67.4437 44.2238 67.6567 43.8803 67.8362 43.5192C67.8526 43.4928 67.8706 43.4673 67.89 43.443C67.89 43.7387 67.9482 43.9537 68.2394 43.891C68.5306 43.8283 68.7949 43.443 68.9607 43.2056C69.1265 42.9681 69.2474 42.7576 69.4087 42.547C69.4356 42.8158 69.4849 43.116 69.7357 43.0667C69.9866 43.0174 70.1837 42.5739 70.3181 42.3947C70.4525 42.2155 70.5197 42.0811 70.6049 41.9198C70.6227 41.9492 70.6422 41.9776 70.6631 42.0049C70.8737 42.2289 71.1111 42.0049 71.2634 41.8078C71.4561 41.5569 71.6711 41.2881 71.8548 41.0014C71.8985 41.1246 71.9885 41.2258 72.1057 41.2837C72.4327 41.436 72.7373 41.1672 72.9255 40.9297C73.1541 40.6177 73.3578 40.2881 73.5348 39.9441C73.5481 40.0092 73.575 40.0707 73.6135 40.1247C73.6521 40.1787 73.7016 40.224 73.7588 40.2577C73.8793 40.3185 74.0138 40.3461 74.1485 40.3374C74.2832 40.3287 74.4132 40.2842 74.5249 40.2085C74.601 40.1771 74.5025 39.9576 74.3949 40.0113ZM67.2762 41.2837C67.4285 41.2075 67.7242 41.0776 67.7556 41.3329C67.7347 41.4991 67.6644 41.6551 67.554 41.7809C67.2934 42.1287 66.9926 42.4445 66.658 42.7217C66.3158 43.0372 65.9454 43.3206 65.5514 43.5685C65.6665 43.0895 65.879 42.6395 66.1758 42.2464C66.4726 41.8533 66.8472 41.5255 67.2762 41.2837Z" fill="black"/>
</svg>
