<svg width="64" height="64" viewBox="0 0 64 64" fill="none" xmlns="http://www.w3.org/2000/svg">
<mask id="mask0_367_280" style="mask-type:alpha" maskUnits="userSpaceOnUse" x="0" y="0" width="64" height="64">
<rect width="64" height="64" fill="#D9D9D9"/>
</mask>
<g mask="url(#mask0_367_280)">
<path d="M50.5179 56.3947L42.5386 48.456L36.6719 54.3227L35.3692 53.0207C34.4497 52.1007 33.9899 50.9623 33.9899 49.6054C33.9899 48.248 34.4497 47.1096 35.3692 46.19L46.4566 35.1027C47.3761 34.1831 48.5146 33.7234 49.8719 33.7234C51.2288 33.7234 52.3672 34.1831 53.2872 35.1027L54.5892 36.4054L48.7226 42.272L56.6612 50.2514C57.1435 50.7331 57.3846 51.2956 57.3846 51.9387C57.3846 52.5814 57.1435 53.1436 56.6612 53.6254L53.8919 56.3947C53.4101 56.8769 52.8479 57.118 52.2052 57.118C51.5621 57.118 50.9997 56.8769 50.5179 56.3947ZM57.3332 15.1694L27.4766 45.0514L28.6306 46.164C29.5501 47.0836 30.0099 48.222 30.0099 49.5794C30.0099 50.9367 29.5501 52.0751 28.6306 52.9947L27.3279 54.2974L21.4612 48.4307L13.4819 56.3694C13.0001 56.8511 12.4377 57.092 11.7946 57.092C11.1519 57.092 10.5897 56.8511 10.1079 56.3694L7.33857 53.6C6.85635 53.1178 6.61523 52.5554 6.61523 51.9127C6.61523 51.27 6.85635 50.7076 7.33857 50.2254L15.2772 42.246L9.41057 36.3794L10.7126 35.0767C11.6326 34.1571 12.771 33.6974 14.1279 33.6974C15.4852 33.6974 16.6237 34.1571 17.5432 35.0767L18.6819 36.2567L48.5639 6.40002H57.3332V15.1694ZM19.4566 27.9847L6.66657 15.1694V6.40002H15.4359L28.1999 19.19L25.3746 21.9747L13.7999 10.4H10.6666V13.5334L22.2666 25.1334L19.4566 27.9847ZM24.6666 42.2L53.3332 13.5334V10.4H50.1999L21.5332 39.0667L24.6666 42.2Z" fill="#BA2A26"/>
</g>
</svg>
